<?xml version="1.0" encoding="utf-8"?>
<!-- Generator: Adobe Illustrator 27.0.0, SVG Export Plug-In . SVG Version: 6.00 Build 0)  -->
<svg version="1.1" id="图层_1" xmlns="http://www.w3.org/2000/svg" xmlns:xlink="http://www.w3.org/1999/xlink" x="0px" y="0px"
	 viewBox="0 0 200 200" style="enable-background:new 0 0 200 200;" xml:space="preserve">
<path d="M173.67,32.12H26.06c-7.46,0-13.53,6.07-13.53,13.53v108.71c0,7.46,6.07,13.53,13.53,13.53h147.61
	c7.46,0,13.53-6.07,13.53-13.53V45.65C187.19,38.19,181.13,32.12,173.67,32.12z M176.26,154.36c0,1.43-1.16,2.59-2.59,2.59H26.06
	c-1.43,0-2.59-1.16-2.59-2.59V45.65c0-1.43,1.16-2.59,2.59-2.59h147.61c1.43,0,2.59,1.16,2.59,2.59V154.36L176.26,154.36z"/>
<path d="M109.64,118.72l-20.15-10.07l5.21-7.58c0.63-0.91,0.96-1.99,0.96-3.1V81.96c0-11.88-9.5-21.2-21.63-21.2
	c-12.12,0-21.62,9.31-21.62,21.2v16.01c0,1.14,0.35,2.24,1.01,3.17l5.31,7.47L37.7,118.68c-1.9,0.91-3.11,2.83-3.11,4.93v10.16
	c0,3.02,2.45,5.47,5.47,5.47h67.14c3.02,0,5.47-2.45,5.47-5.47v-10.16C112.66,121.54,111.49,119.64,109.64,118.72z M101.73,128.3
	h-56.2v-1.25l23.79-11.4c1.46-0.69,2.53-2,2.93-3.56c0.41-1.56,0.1-3.22-0.83-4.54l-8.06-11.34V81.96c0-5.75,4.69-10.26,10.69-10.26
	c6,0,10.69,4.51,10.69,10.26v14.31l-7.81,11.36c-0.9,1.3-1.19,2.93-0.79,4.46c0.4,1.53,1.44,2.82,2.85,3.52l22.75,11.37
	L101.73,128.3L101.73,128.3z M124.87,107.11h22.22c3.02,0,5.47-2.45,5.47-5.47c0-3.02-2.45-5.47-5.47-5.47h-22.22
	c-3.02,0-5.47,2.45-5.47,5.47S121.85,107.11,124.87,107.11z M159.67,72.99h-34.8c-3.02,0-5.47,2.45-5.47,5.47
	c0,3.02,2.45,5.47,5.47,5.47h34.8c3.02,0,5.47-2.45,5.47-5.47C165.14,75.44,162.69,72.99,159.67,72.99z M159.67,120.96h-34.8
	c-3.02,0-5.47,2.45-5.47,5.47c0,3.02,2.45,5.47,5.47,5.47h34.8c3.02,0,5.47-2.45,5.47-5.47S162.69,120.96,159.67,120.96z"/>
</svg>
