<?xml version="1.0" encoding="utf-8"?>
<!-- Generator: Adobe Illustrator 27.0.0, SVG Export Plug-In . SVG Version: 6.00 Build 0)  -->
<svg version="1.1" id="图层_1" xmlns="http://www.w3.org/2000/svg" xmlns:xlink="http://www.w3.org/1999/xlink" x="0px" y="0px"
	 viewBox="0 0 200 200" style="enable-background:new 0 0 200 200;" xml:space="preserve">
<style type="text/css">
	.st0{stroke:#000000;stroke-width:3;stroke-miterlimit:10;}
	.st1{fill:#070707;}
</style>
<path class="st0" d="M154.29,62.51c0-17.62-14.35-31.97-31.97-31.97c-8.41,0-16.41,3.33-22.33,9.08
	c-5.91-5.76-13.92-9.08-22.33-9.08c-17.65,0-31.97,14.35-31.97,31.97c0,29.81,33.88,56.02,52.82,62.33l1.48,0.49l1.48-0.49
	C120.45,118.52,154.29,92.32,154.29,62.51z M100,115.41c-16.11-6.13-44.93-29.04-44.93-52.91c0-12.47,10.13-22.6,22.6-22.6
	c7.36,0,14.26,3.6,18.51,9.61l3.82,5.45l3.82-5.45c4.25-6.01,11.15-9.61,18.51-9.61c12.47,0,22.6,10.13,22.6,22.6
	C144.93,86.37,116.11,109.28,100,115.41z M32.06,71.34H22.7c0,33.2,20.51,62.42,51.4,73.76v34h9.36v-40.77l-3.26-1.05
	C51.43,128.1,32.06,101.62,32.06,71.34z M167.94,71.34c0,30.27-19.34,56.76-48.13,65.93l-3.26,1.05v40.77h9.36v-34
	c30.89-11.33,51.4-40.56,51.4-73.76H167.94z"/>
</svg>
