<?xml version="1.0" encoding="utf-8"?>
<!-- Generator: Adobe Illustrator 27.0.0, SVG Export Plug-In . SVG Version: 6.00 Build 0)  -->
<svg version="1.1" id="图层_1" xmlns="http://www.w3.org/2000/svg" xmlns:xlink="http://www.w3.org/1999/xlink" x="0px" y="0px"
	 viewBox="0 0 200 200" style="enable-background:new 0 0 200 200;" xml:space="preserve" fill="#ffffff">
<g>
	<path d="M147.54,169.33H43.12l0.01-113.79l-0.07-0.94c-0.5-3.69-3.69-6.46-7.41-6.46c-4.13,0-7.48,3.35-7.48,7.48l0,121.27
		l0.07,0.95c0.51,3.68,3.69,6.46,7.41,6.46c0,0,0,0,0,0l111.96,0l0.95-0.07c3.68-0.51,6.46-3.69,6.45-7.47l-0.07-0.94
		C154.45,172.11,151.27,169.33,147.54,169.33z"/>
	<path d="M162.2,24.05H64.24c-5.32,0-9.64,4.32-9.64,9.62V150.1c0,2.57,1.01,4.99,2.83,6.81c1.82,1.82,4.24,2.81,6.8,2.81
		c0,0,0.01,0,0.01,0h97.96c5.31,0,9.63-4.32,9.63-9.63V33.68C171.83,28.37,167.51,24.05,162.2,24.05z M156.88,38.99v105.78H69.55
		V38.99H156.88z"/>
	<path d="M91.96,97.96c-4,0-7.25,3.25-7.25,7.25s3.25,7.25,7.25,7.25h15.67v10.5c0,4,3.25,7.25,7.25,7.25s7.25-3.25,7.25-7.25
		v-10.51h15.67c4,0,7.25-3.25,7.25-7.25c0-4-3.25-7.25-7.25-7.25h-15.67v-4.93h15.67c4,0,7.25-3.25,7.25-7.25s-3.25-7.25-7.25-7.25
		h-7.05l6.19-15.96l0.27-0.89c0.74-3.29-1.09-6.64-4.26-7.8h0c-3.54-1.29-7.53,0.52-8.9,4.04l-8.01,20.61h-4.37l-7.92-20.45
		c-1.37-3.51-5.36-5.32-8.89-4.03l-0.14,0.05c-3.46,1.34-5.19,5.25-3.84,8.71l6.1,15.7h-5.01c-4,0-7.25,3.25-7.25,7.25
		s3.25,7.25,7.25,7.25h15.67v4.95H91.96z"/>
</g>
</svg>
