<?xml version="1.0" encoding="utf-8"?>
<!-- Generator: Adobe Illustrator 27.0.0, SVG Export Plug-In . SVG Version: 6.00 Build 0)  -->
<svg version="1.1" id="图层_1" xmlns="http://www.w3.org/2000/svg" xmlns:xlink="http://www.w3.org/1999/xlink" x="0px" y="0px"
	 viewBox="0 0 200 200" style="enable-background:new 0 0 200 200;" xml:space="preserve">
<style type="text/css">
	.st0{stroke:#000000;stroke-width:3;stroke-miterlimit:10;}
	.st1{fill:#070707;}
</style>
<g>
	<path d="M100,26.3L31.41,54.8v42.74c0,39.53,29.22,76.41,68.59,85.49c39.38-8.94,68.59-45.96,68.59-85.49V54.8L100,26.3z
		 M156.09,97.54c0,16.9-6.09,33.8-17.19,47.63C128.59,158.02,115,167.24,100,171.29c-14.84-4.19-28.59-13.27-38.91-26.12
		C50,131.34,43.91,114.3,43.91,97.54V61.92L100,38.74l56.09,23.33V97.54z"/>
	<path d="M75.59,83.93c0,7.19,3.2,13.94,8.67,18.52c-11.32,5.8-18.5,17.38-18.5,30.17v1.5h9.55v-1.5
		c0-13.49,11.07-24.47,24.68-24.47c13.61,0,24.68,10.98,24.68,24.47v1.5h9.55v-1.5c0-12.78-7.18-24.36-18.5-30.17
		c5.47-4.58,8.68-11.33,8.68-18.52c0-13.36-10.95-24.23-24.41-24.23C86.54,59.71,75.59,70.58,75.59,83.93z M85.13,83.93
		c0-8.12,6.67-14.73,14.87-14.73s14.87,6.61,14.87,14.73c0,8.12-6.67,14.73-14.87,14.73S85.13,92.05,85.13,83.93z"/>
</g>
</svg>
