<?xml version="1.0" encoding="utf-8"?>
<!-- Generator: Adobe Illustrator 27.0.0, SVG Export Plug-In . SVG Version: 6.00 Build 0)  -->
<svg version="1.1" id="图层_1" xmlns="http://www.w3.org/2000/svg" xmlns:xlink="http://www.w3.org/1999/xlink" x="0px" y="0px"
	 viewBox="0 0 200 200" style="enable-background:new 0 0 200 200;" xml:space="preserve">
<path d="M100,74.79c-14.05,0-25.4,11.35-25.4,25.21c0,14.05,11.35,25.4,25.4,25.4s25.4-11.35,25.4-25.4S114.05,74.79,100,74.79
	L100,74.79z M100,136.37c-20.21,0-36.57-16.36-36.57-36.57S79.79,63.24,100,63.24s36.57,16.36,36.57,36.57S120.21,136.37,100,136.37
	z M105.58,177.95c0.38-0.19,1.54-1.35,1.73-2.69l3.46-15.2c0.77-3.08,3.08-5.77,6.16-6.74l0.58-0.19c2.89-0.96,5.58-2.12,8.47-3.46
	l0.58-0.19c2.89-1.54,6.35-1.35,9.05,0.38l13.28,8.47c0.58,0.38,1.54,0.77,2.5,0.77c0.38,0,0.58,0,0.77-0.19l7.51-7.51
	c0-0.58-0.19-1.92-1.15-3.27l-8.08-13.28c-1.54-2.69-1.73-5.97-0.38-8.85l0.19-0.38c1.35-2.69,2.5-5.39,3.27-8.08l0.19-0.58
	c0.96-2.89,3.46-5.2,6.35-5.97l14.82-3.66c1.92-0.38,3.08-1.15,3.46-1.54V95c-0.19-0.38-1.35-1.54-2.69-1.73l-15.4-3.46
	c-3.27-0.77-5.77-3.08-6.74-6.16l-0.19-0.58c-0.96-2.69-2.12-5.58-3.46-8.47l-0.19-0.38c-1.35-2.89-1.35-6.16,0.38-8.85l7.89-13.28
	c0.96-1.54,1.35-3.08,1.35-3.46l-7.51-7.51h-0.58c-0.77,0-1.73,0.19-2.5,0.77l-13.47,8.28c-2.69,1.73-6.16,1.92-9.05,0.38
	l-0.58-0.38c-2.89-1.54-5.77-2.69-8.47-3.66l-0.58-0.19c-3.08-0.96-5.39-3.46-6.16-6.74l-3.27-14.82v-0.38
	c-0.19-1.35-1.35-2.5-1.73-2.69H94.8c-0.38,0.38-1.15,1.54-1.54,3.27l-3.66,14.82c-0.77,3.08-3.08,5.58-5.97,6.54l-0.38,0.19
	c-3.27,0.96-6.35,2.31-9.24,3.85l-0.58,0.19c-2.89,1.54-6.35,1.35-9.05-0.38l-13.47-8.66c-0.58-0.38-1.54-0.77-2.5-0.77
	c-0.38,0-0.58,0-0.77,0.19l-7.51,7.51c0,0.58,0.19,1.92,1.15,3.27l8.47,14.24c1.54,2.5,1.54,5.58,0.38,8.28l-0.38,0.77
	c-1.35,2.89-2.5,5.58-3.27,8.08l-0.19,0.77c-0.96,2.89-3.27,5.2-6.35,5.77l-15.4,3.46c-1.35,0.19-2.5,1.35-2.69,1.73v10.59
	c0.38,0.38,1.54,1.15,3.27,1.54l15.01,3.66c3.08,0.77,5.39,3.08,6.35,5.97l0.19,0.58c0.77,2.5,1.73,4.81,3.08,7.31l0.19,0.38
	c1.35,2.69,1.15,5.97-0.38,8.66l-8.28,13.86c-0.96,1.54-1.35,2.89-1.35,3.46l7.51,7.51h0.58c0.77,0,1.73-0.19,2.5-0.77l13.47-8.66
	c2.69-1.73,6.16-1.92,9.05-0.38l0.58,0.19c3.08,1.54,6.16,2.89,9.05,3.85l0.58,0.19c3.08,0.96,5.39,3.46,6.16,6.54l3.66,14.63
	c0.38,1.92,1.15,3.08,1.54,3.46L105.58,177.95L105.58,177.95z M94.42,189.3c-6.54,0-10.78-5.97-12.32-11.93l-3.27-13.47
	c-3.27-1.15-6.54-2.5-9.62-4.04l-12.12,7.7c-2.5,1.73-5.77,2.69-8.85,2.69c-3.46,0-6.54-1.15-8.66-3.27l-7.7-7.7
	c-4.62-4.62-3.46-11.93-0.19-17.13l7.7-12.89c-1.35-2.69-2.31-5.2-3.08-7.7l-13.66-3.46c-5.97-1.35-11.93-5.58-11.93-12.32V94.8
	c0-6.74,6.16-11.74,11.93-12.89l13.47-2.89c0.96-2.69,1.92-5.39,3.46-8.28l-7.7-12.89c-3.27-5.2-4.43-12.51,0.19-17.13l7.7-7.7
	c2.12-2.12,5.2-3.27,8.66-3.27c3.08,0,6.35,0.96,8.85,2.69l12.12,7.7c3.08-1.54,6.35-2.89,9.62-4.04l3.27-13.47
	c1.35-5.97,5.77-11.93,12.32-11.93h10.97c6.74,0,11.74,6.16,12.89,11.93l3.08,13.47c3.08,0.96,5.97,2.31,8.85,3.66l11.74-7.51
	c2.5-1.73,5.77-2.69,8.85-2.69c3.46,0,6.54,1.15,8.66,3.27l7.7,7.7c5,5,3.27,12.32,0.19,17.13l-7.31,12.32
	c1.54,3.08,2.69,6.16,3.66,9.05l13.47,2.89c5.77,0.96,11.93,6.16,11.93,12.89v10.97c0,6.54-5.97,10.78-11.93,12.32l-13.66,3.46
	c-0.96,2.69-2.12,5.58-3.46,8.28l7.31,12.12c3.27,5.2,4.43,12.51-0.19,17.13l-7.7,7.7c-2.12,2.12-5.2,3.27-8.66,3.27
	c-3.08,0-6.35-0.96-8.85-2.69l-11.74-7.51c-2.89,1.54-5.77,2.69-8.85,3.66l-3.08,13.66c-0.96,5.77-6.16,11.93-12.89,11.93H94.42
	V189.3z"/>
</svg>
