<?xml version="1.0" encoding="utf-8"?>
<!-- Generator: Adobe Illustrator 27.0.0, SVG Export Plug-In . SVG Version: 6.00 Build 0)  -->
<svg version="1.1" id="图层_1" xmlns="http://www.w3.org/2000/svg" xmlns:xlink="http://www.w3.org/1999/xlink" x="0px" y="0px"
	 viewBox="0 0 200 200" style="enable-background:new 0 0 200 200;" xml:space="preserve">
<style type="text/css">
	.st0{stroke:#000000;stroke-width:3;stroke-miterlimit:10;}
	.st1{fill:#070707;}
</style>
<g>
	<path d="M182.19,41.12l-0.62-4.88h-27.55V17.93H45.97v18.31H18.39l-0.59,5.05c-1.79,14.56,2.03,44.52,29.17,54.39
		c4.57,23.1,24.71,42.28,47.3,45.08v29.91H63.53v11.39h72.94v-11.39h-30.74v-30.03c22.63-2.81,42.72-21.97,47.17-45.05
		C180.17,85.7,184,55.7,182.19,41.12z M100,129.74c-21.89,0-42.59-21.22-42.59-43.66V29.17h85.17v56.91
		C142.57,108.52,121.88,129.74,100,129.74z M154.03,82.6V47.7h16.92C171.01,54.82,169.61,73.77,154.03,82.6z M45.83,47.7v35.12
		c-15.06-8.8-16.92-26.71-16.91-35.12H45.83z"/>
	<polygon points="107.98,60.97 99.99,44.78 92.01,60.97 74.14,63.55 87.06,76.15 84,93.93 99.99,85.55 115.96,93.93 112.9,76.15 
		125.84,63.55 	"/>
</g>
</svg>
