<?xml version="1.0" encoding="utf-8"?>
<!-- Generator: Adobe Illustrator 27.0.0, SVG Export Plug-In . SVG Version: 6.00 Build 0)  -->
<svg version="1.1" id="图层_1" xmlns="http://www.w3.org/2000/svg" xmlns:xlink="http://www.w3.org/1999/xlink" x="0px" y="0px"
	 viewBox="0 0 200 200" style="enable-background:new 0 0 200 200;" xml:space="preserve">
<g>
	<path d="M153.3,74.68h-5.11V58.14c0-26.56-21.61-48.18-48.17-48.18S51.84,31.57,51.84,58.14v16.52h-5.12
		c-11.87,0-21.53,9.66-21.53,21.52v72.32c0,11.87,9.66,21.53,21.53,21.53H153.3c11.86,0,21.51-9.66,21.51-21.53V96.2
		C174.81,84.33,165.16,74.68,153.3,74.68z M64.44,74.66V58.14C64.44,38.54,80.4,22.58,100,22.58c19.61,0,35.56,15.95,35.56,35.56
		v16.52H64.44z M162.22,96.2v72.32c0,4.92-4,8.91-8.92,8.91H46.71c-4.92,0-8.92-4-8.93-8.91V96.2c0-4.92,4-8.93,8.93-8.93H153.3
		C158.22,87.27,162.22,91.28,162.22,96.2z"/>
	<path d="M100.04,108.94H100c-3.72,0-7.21,1.45-9.84,4.08c-2.63,2.63-4.07,6.13-4.07,9.85c0,3.56,1.38,6.98,3.8,9.55v9.47
		c0,5.58,4.54,10.11,10.11,10.11s10.11-4.54,10.11-10.11v-9.47c2.43-2.57,3.81-6,3.8-9.56c0.01-3.71-1.43-7.21-4.05-9.84
		C107.24,110.4,103.76,108.95,100.04,108.94z"/>
</g>
</svg>
