<?xml version="1.0" encoding="utf-8"?>
<!-- Generator: Adobe Illustrator 27.0.0, SVG Export Plug-In . SVG Version: 6.00 Build 0)  -->
<svg version="1.1" id="图层_1" xmlns="http://www.w3.org/2000/svg" xmlns:xlink="http://www.w3.org/1999/xlink" x="0px" y="0px"
	 viewBox="0 0 200 200" style="enable-background:new 0 0 200 200;" xml:space="preserve">
<style type="text/css">
	.st0{stroke:#000000;stroke-width:3;stroke-miterlimit:10;}
	.st1{fill:#070707;}
</style>
<g>
	<path class="st1" d="M177.31,101.7c-0.69-41.96-35.2-76.05-77.31-76.05c-42.54,0-77.32,34.78-77.32,77.32v20.82v14.87v23.79
		c0,6.57,5.33,11.9,11.9,11.9h23.79c9.85,0,17.84-7.99,17.84-17.84v-26.77c0-9.85-7.99-17.84-17.84-17.84H34.57v-8.92l0.01-1.08
		C35.16,66.42,64.39,37.55,100,37.55c35.97,0,65.43,29.46,65.43,65.43v8.92h-23.79c-9.85,0-17.84,7.99-17.84,17.84v26.77
		c0,9.85,7.99,17.84,17.84,17.84h23.79c6.57,0,11.9-5.33,11.9-11.9v-23.79v-14.87v-20.82L177.31,101.7z M58.37,123.79
		c3.28,0,5.95,2.66,5.95,5.95v26.77c0,3.28-2.66,5.95-5.95,5.95H34.57v-23.79v-14.87H58.37z M165.43,162.45h-23.79
		c-3.28,0-5.95-2.66-5.95-5.95v-26.77c0-3.28,2.66-5.95,5.95-5.95h23.79v14.87V162.45z"/>
	<path class="st1" d="M126.99,72.68c8.64,6.91,13.37,17.77,13.38,30.38l11.9-0.01l-0.01-1.21c-0.33-16.09-6.94-30.3-18.94-39.31
		l-0.33-0.23c-0.93-0.61-2.04-0.96-3.24-0.96c-1.87,0-3.63,0.88-4.75,2.38c-1.97,2.63-1.44,6.35,1.18,8.33L126.99,72.68z"/>
</g>
</svg>
