<svg enable-background="new 0 0 200 200" viewBox="0 0 200 200" xmlns="http://www.w3.org/2000/svg">
    <path fill="#ffffff" d="m174.17 95.73 17.68 17.68c3.26 3.25 3.26 8.53 0 11.79l-56.05 56.05c-1.57 1.57-3.7 2.45-5.92 2.44l-17.62-.06c-4.58-.02-8.29-3.72-8.3-8.3l-.06-17.62c-.01-2.22.87-4.35 2.44-5.92l56.05-56.05c3.25-3.26 8.52-3.26 11.78-.01zm-136.67-79.06h125c4.6 0 8.33 3.73 8.33 8.33v54.17h-16.67v-45.84h-108.33v133.33h41.67v16.67h-50c-4.6 0-8.33-3.73-8.33-8.33v-150c0-4.6 3.73-8.33 8.33-8.33zm130.77 96.74-47.7 47.7.02 5.88 5.88.02 47.7-47.7zm-68.27-9.24c2.3 0 4.17 1.87 4.17 4.17v8.33c0 2.3-1.87 4.17-4.17 4.17h-33.33c-2.3 0-4.17-1.87-4.17-4.17v-8.33c0-2.3 1.87-4.17 4.17-4.17zm33.33-33.34c2.3 0 4.17 1.87 4.17 4.17v8.33c0 2.3-1.87 4.17-4.17 4.17h-66.66c-2.3 0-4.17-1.87-4.17-4.17v-8.33c0-2.3 1.87-4.17 4.17-4.17z"/>
</svg>