<?xml version="1.0" encoding="utf-8"?>
<!-- Generator: Adobe Illustrator 27.0.0, SVG Export Plug-In . SVG Version: 6.00 Build 0)  -->
<svg version="1.1" id="图层_1" xmlns="http://www.w3.org/2000/svg" xmlns:xlink="http://www.w3.org/1999/xlink" x="0px" y="0px"
	 viewBox="0 0 200 200" style="enable-background:new 0 0 200 200;" xml:space="preserve">
<path d="M100,21.64l-68.59,28.5v42.74c0,39.53,29.22,76.41,68.59,85.49c39.37-8.94,68.59-45.96,68.59-85.49V50.13L100,21.64z
	 M156.09,92.88c0,16.9-6.09,33.8-17.19,47.63c-10.31,12.85-23.9,22.07-38.9,26.12c-14.84-4.19-28.59-13.27-38.91-26.12
	C50,126.68,43.91,109.64,43.91,92.88V57.26L100,34.07l56.09,23.33V92.88z"/>
<path d="M95.36,79c-7.87-7.57-20.68-7.57-28.55,0c-7.89,7.59-7.91,19.95-0.04,27.57l29.83,28.77c0.88,0.87,2.06,1.36,3.34,1.38h0.01
	h0.11c0.14,0,0.28-0.02,0.42-0.04l0.13-0.02c0.11-0.01,0.23-0.02,0.35-0.04c0.16-0.03,0.32-0.08,0.48-0.13l-0.34-1.19l0.44,1.15
	c0.1-0.02,0.2-0.06,0.31-0.1c0.19-0.07,0.37-0.17,0.57-0.29c0.08-0.04,0.17-0.09,0.25-0.14c0.26-0.17,0.51-0.37,0.72-0.57
	l21.9-21.04c0.2-0.19,0.35-0.38,0.47-0.53l7.48-7.21c7.85-7.59,7.85-19.94,0-27.53c-3.81-3.69-8.89-5.73-14.29-5.73
	c-0.01,0-0.02,0-0.03,0c-5.39,0-10.46,2.02-14.27,5.68l-4.66,4.46L95.36,79z M86.14,96.76c-1.87,1.8-1.87,4.73,0,6.54
	c1.87,1.8,4.91,1.8,6.78,0l18.49-17.83c4.25-4.02,11.04-4.03,15.13-0.02c4.14,4.06,4.14,10.61,0.01,14.6L100,125.56l-18.43-17.78
	c-0.05-0.05-0.11-0.1-0.18-0.15l-7.8-7.54c-3.3-3.83-3.29-9.37,0.03-13.19c1.83-2.11,4.41-3.4,7.25-3.65
	c2.83-0.24,5.57,0.59,7.76,2.33l4.57,4.41L86.14,96.76z"/>
</svg>
