<?xml version="1.0" encoding="utf-8"?>
<!-- Generator: Adobe Illustrator 27.0.0, SVG Export Plug-In . SVG Version: 6.00 Build 0)  -->
<svg version="1.1" id="图层_1" xmlns="http://www.w3.org/2000/svg" xmlns:xlink="http://www.w3.org/1999/xlink" x="0px" y="0px"
	 viewBox="0 0 200 200" style="enable-background:new 0 0 200 200;" xml:space="preserve">
<style type="text/css">
	.st0{stroke:#000000;stroke-width:3;stroke-miterlimit:10;}
	.st1{fill:#070707;}
</style>
<path d="M123.1,26.54c-3.55-2.22-7.91-2.58-12.26-0.53L54.87,58.79H27.33c-6.4,0-11.64,5.24-11.64,11.64v59.08
	c0,6.4,5.24,11.64,11.64,11.64h27.54l56.41,33.05c1.6,0.8,3.38,1.15,5.15,1.15c2.31,0,4.62-0.62,6.57-1.95
	c3.55-2.22,5.69-6.13,5.69-10.31V36.93C128.7,32.67,126.56,28.76,123.1,26.54z M50.61,129.33l-23.1,0.18l-0.18-58.81h23.28V129.33z
	 M116.79,163.62l-54.37-31.89V68.12l54.19-31.72l0.27,126.68L116.79,163.62z M184.31,98.14c0,3.29-2.67,5.95-5.95,5.95h-27.01
	c-3.29,0-5.95-2.67-5.95-5.95c0-3.29,2.66-5.95,5.95-5.95h27.01C181.64,92.19,184.31,94.86,184.31,98.14z M146.37,67.94
	c-1.78-2.75-1.07-6.4,1.6-8.17l23.45-15.64c2.75-1.87,6.4-1.07,8.17,1.6c1.78,2.75,1.07,6.4-1.6,8.17l-23.45,15.64
	c-0.98,0.71-2.13,0.98-3.29,0.98C149.39,70.6,147.53,69.71,146.37,67.94L146.37,67.94z M178,142.3c2.75,1.78,3.46,5.51,1.6,8.17
	c-1.15,1.69-3.02,2.67-4.97,2.67c-1.15,0-2.31-0.36-3.29-0.98l-23.45-15.64c-2.75-1.78-3.46-5.51-1.6-8.17
	c1.78-2.75,5.51-3.46,8.17-1.6L178,142.3L178,142.3z"/>
</svg>
