<?xml version="1.0" encoding="utf-8"?>
<!-- Generator: Adobe Illustrator 27.0.0, SVG Export Plug-In . SVG Version: 6.00 Build 0)  -->
<svg version="1.1" id="图层_1" xmlns="http://www.w3.org/2000/svg" xmlns:xlink="http://www.w3.org/1999/xlink" x="0px" y="0px"
	 viewBox="0 0 200 200" style="enable-background:new 0 0 200 200;" xml:space="preserve">
<style type="text/css">
	.st0{stroke:#000000;stroke-width:3;stroke-miterlimit:10;}
	.st1{fill:#070707;}
</style>
<g>
	<path d="M132.56,138.1H67.44c-3,0-5.43,2.43-5.43,5.43c0,3,2.43,5.43,5.43,5.43h65.11c3,0,5.43-2.43,5.43-5.43
		C137.98,140.53,135.55,138.1,132.56,138.1z"/>
	<path d="M82.15,82.89l-1.64,12.93c-0.03,0.22-0.04,0.45-0.04,0.67c0,3,2.43,5.44,5.43,5.44c0.8,0,1.59-0.18,2.31-0.52L100,95.86
		l11.79,5.55c0.93,0.44,1.97,0.6,2.99,0.47c2.97-0.37,5.08-3.09,4.71-6.06l-1.63-12.93l8.93-9.5c0.7-0.75,1.18-1.69,1.37-2.7
		c0.56-2.94-1.37-5.79-4.32-6.35l-12.81-2.44l-6.28-11.42c-0.5-0.91-1.24-1.65-2.15-2.15c-2.63-1.44-5.92-0.48-7.36,2.15L88.97,61.9
		l-12.81,2.44c-1.01,0.19-1.95,0.67-2.7,1.38c-2.18,2.05-2.29,5.49-0.24,7.67L82.15,82.89z M93.51,72.09
		c1.59-0.3,2.96-1.3,3.74-2.72l2.75-5.01l2.76,5.01c0.78,1.42,2.15,2.41,3.74,2.72l5.61,1.07l-3.91,4.17
		c-1.11,1.18-1.63,2.79-1.43,4.4l0.71,5.67l-5.17-2.43c-0.72-0.34-1.51-0.52-2.31-0.52L100,84.44c-0.8,0-1.59,0.18-2.31,0.52
		l-5.17,2.43l0.72-5.67c0.2-1.61-0.32-3.22-1.43-4.4l-3.91-4.17L93.51,72.09z"/>
	<path d="M132.56,116.4H67.44c-3,0-5.43,2.43-5.43,5.43s2.43,5.43,5.43,5.43h65.11c3,0,5.43-2.43,5.43-5.43
		S135.55,116.4,132.56,116.4z"/>
	<path d="M153.09,19.91H46.91c-9.09,0-16.49,7.4-16.49,16.49V163.6c0,9.09,7.4,16.49,16.49,16.49h106.19
		c9.09,0,16.49-7.4,16.49-16.49V36.4C169.58,27.3,162.19,19.91,153.09,19.91z M158.58,163.6c0,3.03-2.46,5.49-5.49,5.49H46.91
		c-3.03,0-5.49-2.46-5.49-5.49V36.4c0-3.03,2.46-5.49,5.49-5.49h106.19c3.03,0,5.49,2.46,5.49,5.49V163.6z"/>
</g>
</svg>
