<?xml version="1.0" encoding="utf-8"?>
<!-- Generator: Adobe Illustrator 27.0.0, SVG Export Plug-In . SVG Version: 6.00 Build 0)  -->
<svg version="1.1" id="图层_1" xmlns="http://www.w3.org/2000/svg" xmlns:xlink="http://www.w3.org/1999/xlink" x="0px" y="0px"
	 viewBox="0 0 200 200" style="enable-background:new 0 0 200 200;" xml:space="preserve">
<style type="text/css">
	.st0{stroke:#000000;stroke-width:3;stroke-miterlimit:10;}
	.st1{fill:#070707;}
</style>
<path d="M153.1,19.91H46.91c-9.09,0-16.49,7.4-16.49,16.49V163.6c0,9.09,7.4,16.49,16.49,16.49H153.1c9.09,0,16.49-7.4,16.49-16.49
	V36.4C169.59,27.3,162.19,19.91,153.1,19.91z M158.59,163.6c0,3.03-2.46,5.49-5.49,5.49H46.91c-3.03,0-5.49-2.46-5.49-5.49V36.4
	c0-3.03,2.46-5.49,5.49-5.49H153.1c3.03,0,5.49,2.46,5.49,5.49V163.6z"/>
<path d="M122.96,78.27H68.17c-3.4,0-6.16-2.76-6.16-6.16v-1.14c0-3.4,2.76-6.16,6.16-6.16h54.79c3.4,0,6.16,2.76,6.16,6.16v1.14
	C129.12,75.51,126.36,78.27,122.96,78.27z"/>
<path d="M98.9,106.72H68.74c-3.71,0-6.72-3.01-6.72-6.72v0c0-3.71,3.01-6.72,6.72-6.72H98.9c3.71,0,6.72,3.01,6.72,6.72v0
	C105.63,103.71,102.61,106.72,98.9,106.72z"/>
<path d="M122.39,135.18H68.74c-3.71,0-6.72-3.01-6.72-6.72v0c0-3.71,3.01-6.72,6.72-6.72h53.65c3.71,0,6.72,3.01,6.72,6.72v0
	C129.12,132.17,126.11,135.18,122.39,135.18z"/>
</svg>
