<?xml version="1.0" encoding="utf-8"?>
<!-- Generator: Adobe Illustrator 27.0.0, SVG Export Plug-In . SVG Version: 6.00 Build 0)  -->
<svg version="1.1" id="图层_1" xmlns="http://www.w3.org/2000/svg" xmlns:xlink="http://www.w3.org/1999/xlink" x="0px" y="0px"
	 viewBox="0 0 200 200" style="enable-background:new 0 0 200 200;" xml:space="preserve">
<style type="text/css">
	.st0{stroke:#000000;stroke-width:3;stroke-miterlimit:10;}
	.st1{fill:#070707;}
</style>
<g>
	<path d="M163.35,50.34h-5.55c2.82-4.77,4.05-9.33,3.66-13.55c-0.33-3.53-2-8.59-8.14-12.62c-5.09-3.35-11.64-4.17-18.9-2.36
		c-11.78,2.96-25.71,13.12-34.88,25.4c-9.17-12.28-23.09-22.45-34.87-25.4c-7.27-1.83-13.82-1-18.91,2.36
		c-6.13,4.03-7.81,9.08-8.14,12.62c-0.39,4.22,0.83,8.78,3.66,13.55h-5.55c-8.41,0-15.25,6.85-15.25,15.26v19.66
		c0,6.66,4.39,12.54,10.74,14.51c-0.6,1.67-0.92,3.4-0.92,5.15v58.97c0,8.41,6.85,15.26,15.26,15.26h107.98
		c8.41,0,15.25-6.85,15.25-15.26l0-58.97c0-1.76-0.3-3.49-0.91-5.15c6.34-1.99,10.72-7.87,10.72-14.51V65.6
		C178.59,57.19,171.76,50.34,163.35,50.34 M153.54,168.27h-48.57v-67.75h48.57c2.42,0,4.38,1.97,4.38,4.4v58.97
		C157.92,166.3,155.96,168.27,153.54,168.27 M110.95,50.34c7.72-8.91,17.86-15.91,26.1-17.98c4.28-1.07,7.77-0.78,10.31,0.89
		c2.69,1.77,3.17,3.35,3.28,4.54c0.43,4.37-4.25,10.25-6.47,12.55H110.95z M167.73,65.6v19.65c0,2.42-1.96,4.39-4.38,4.39h-58.38
		V61.21h58.38C165.77,61.21,167.73,63.18,167.73,65.6 M94.1,100.51v67.75H45.56c-2.43,0-4.39-1.97-4.39-4.39v-58.97
		c0-2.42,1.96-4.4,4.39-4.4L94.1,100.51z M48.45,37.79c0.11-1.19,0.59-2.77,3.27-4.54c2.52-1.67,6.01-1.98,10.31-0.89
		c8.19,2.05,18.32,9.06,26.06,17.98H54.9C52.92,48.33,48.01,42.26,48.45,37.79 M31.34,65.6c0-2.42,1.96-4.39,4.39-4.39H94.1v28.43
		H35.73c-2.43,0-4.39-1.97-4.39-4.39L31.34,65.6z"/>
</g>
</svg>
