<?xml version="1.0" encoding="utf-8"?>
<!-- Generator: Adobe Illustrator 27.0.0, SVG Export Plug-In . SVG Version: 6.00 Build 0)  -->
<svg version="1.1" id="图层_1" xmlns="http://www.w3.org/2000/svg" xmlns:xlink="http://www.w3.org/1999/xlink" x="0px" y="0px"
	 viewBox="0 0 200 200" style="enable-background:new 0 0 200 200;" xml:space="preserve">
<style type="text/css">
	.st0{fill:#FF8E8E;}
	.st1{fill:#4F99FE;}
</style>
<path class="st1" d="M168.4,157.5c-6.9-3.9-14.2-7.4-21.3-11c-12.2-6.2-12.2-6.2-20.1-14.2c-2.3-2.3-6.1-1.1-9.5-1.7
	c4.7-3.8,7.5-8.5,9.7-13.4c3.2-7.2,6.1-14.6,9.1-21.9c0.5-1.2,0.9-1.9,2.5-1.8c2.3,0.2,3.8-1.1,4.7-3.1c2.5-5.7,3.6-11.6,3.3-17.8
	c-0.1-2.6-0.9-4.9-4.1-5.5l0-3.7c0-0.7,0-1.4,0.1-2.1c1.4-11,0.2-22.2-3.4-32.8c-0.9-3-2.4-5.7-4.4-8.2
	c-5.7-6.5-13.2-10.2-21.7-11.9c-3.8-0.7-7.6-1.4-11.4-2.1c-5.7-1-11.5-2.1-17.3-0.8c-3.6,0.6-6.5,3.2-7.4,6.6
	c-0.3,1-0.4,2.1-1.1,2.8c-0.9,1-2.2,2.4-3.4,2.5c-5.1,0.3-8,3.2-9.9,7.2c-3.8,7.8-6.7,15.9-6.4,24.7c0.2,5.9,0,11.8,0,17.9
	c-2.5,0.3-3.5,2.4-3.7,4.7c-0.5,6.6,0.7,12.9,3.5,18.9c0.8,1.8,2.4,2.8,4.5,2.6c1.6-0.2,2.1,0.6,2.5,1.8c1.5,4,3.1,7.9,4.7,11.8
	c3.4,8.3,6.4,16.9,13.5,23.2c0.1,0.1,0,0.3-0.1,0.5c-0.4,0.1-0.9,0.2-1.3,0.3c-11.7,1.6-4.8,4.9-15.5,9.9c-8.7,4-17.4,8.2-26,12.4
	c-6.3,3.1-12.2,6.9-16.3,12.6c-1.7,2.4-3.5,5.2-3.7,8c-0.5,6.9-0.2,13.9-0.2,21h163.4c0-5.9-0.2-11.7,0.1-17.4
	c0.3-4.9-1.6-9.6-5.2-13.1C174.1,161.9,171.4,159.2,168.4,157.5L168.4,157.5z"/>
</svg>
