<?xml version="1.0" encoding="utf-8"?>
<!-- Generator: Adobe Illustrator 27.0.0, SVG Export Plug-In . SVG Version: 6.00 Build 0)  -->
<svg version="1.1" id="图层_1" xmlns="http://www.w3.org/2000/svg" xmlns:xlink="http://www.w3.org/1999/xlink" x="0px" y="0px"
	 viewBox="0 0 200 200" style="enable-background:new 0 0 200 200;" xml:space="preserve">
<style type="text/css">
	.st0{fill:#FF8E8E;}
	.st1{fill:#4F99FE;}
</style>
<path class="st0" d="M171.9,179.2l-2.4-9.5c-1.3-2.2-2.7-4.2-4.4-6.1c-6.8-7.5-15.5-13-25.2-15.9c-4.6-1.4-6-2.6-7.1-3.7
	c0,0,0.1-0.1,0.1-0.1c-0.1,0-0.2-0.1-0.3-0.1c-1-1.1-2-2.1-5.7-3.1c-0.3-0.1-0.5-0.2-0.7-0.3c-0.9-0.3-2-1-2.3-1.8
	c-2.1-6.6-4.1-13.2-6.1-19.8l0.1-0.1c2.2,2.6,4.7,2.9,7.5,2.3c2.5,0.6,5.2,0.4,7.6-0.7c3.6-1.5,7.2-2,11.2,0.6l-3.2-14
	c0.8-0.2,1.5-0.3,2.1-0.7c2.3-1.3,4.7-2.7,6.9-4.1c1.3-0.8,2.6-1.8,4.5-3.2c0.2-2.9,0.5-6.7,0.6-10.4c0.7-17.9,0.5-17.6-3.2-35.1
	c-2.3-11.1-5.7-21.7-12.6-29.9c-6.3-7.5-13.5-12.9-22.4-14c-4.3-0.7-8.6-0.1-13,2.5c-1.3,0.8-2.5,1.7-3.8,2.6
	c-1.3-0.9-2.5-1.9-3.8-2.6c-4.4-2.5-8.7-3.2-13-2.5c-8.9,1.1-16.2,6.5-22.4,14c-6.9,8.3-10.3,18.8-12.6,29.9
	c-3.6,17.6-3.9,17.2-3.2,35.1c0.2,3.8,0.4,7.5,0.6,10.4c1.9,1.3,3.1,2.3,4.5,3.2c2.3,1.5,4.6,2.8,6.9,4.1c0.6,0.3,1.3,0.4,2.1,0.7
	l-3.2,14c4-2.6,7.6-2,11.2-0.6c2.4,1.1,5.1,1.3,7.6,0.7c2.7,0.6,5.3,0.3,7.5-2.3l0.1,0.1c-2,6.6-4,13.2-6.1,19.8
	c-0.3,0.8-1.4,1.5-2.3,1.8c-0.2,0.1-0.5,0.2-0.7,0.3c-3.7,1.1-4.7,2.1-5.7,3.1c-0.1,0-0.2,0.1-0.3,0.1c0,0,0.1,0.1,0.1,0.1
	c-1.1,1.1-2.4,2.3-7.1,3.7c-9.7,2.9-18.4,8.4-25.2,15.9c-1.7,1.9-3.1,4-4.4,6.1l-2.4,9.5c0.1,3.8,0,7.6,0,11.7h57.7h28.3h57.7
	C171.8,186.8,171.7,183,171.9,179.2z"/>
</svg>
