<?xml version="1.0" encoding="utf-8"?>
<!-- Generator: Adobe Illustrator 27.0.0, SVG Export Plug-In . SVG Version: 6.00 Build 0)  -->
<svg version="1.1" id="图层_1" xmlns="http://www.w3.org/2000/svg" xmlns:xlink="http://www.w3.org/1999/xlink" x="0px" y="0px"
	 viewBox="0 0 200 200" style="enable-background:new 0 0 200 200;" xml:space="preserve">
<style type="text/css">
	.st0{fill:#FFA300;}
</style>
<g>
	<path class="st0" d="M100.1,60.4c-13.1,0-24.7,6.3-31.9,16.1l-5.1,1.3c7.6-12.5,21.3-20.9,37-20.9c7.6,0,14.7,2,20.9,5.4l-5.1,1.3
		C111.1,61.6,105.7,60.4,100.1,60.4L100.1,60.4z M74,58.1l-2.8,2.2L70.4,57l-3.1-1.8l3.1-1.8l0.9-3.4l2.8,2.2l3.6-0.3l-1.4,3.2
		l1.4,3.2L74,58.1z M122.1,50.6l2.9-2l0.6,3.5l2.9,2.2l-3.1,1.5l-1.1,3.3l-2.6-2.6l-3.6-0.1l1.6-3.1l-1.2-3.4L122.1,50.6z
		 M95.4,45.7l2.1-2.8l1.7,3.2l3.4,1.2l-2.5,2.4v3.5l-3.2-1.7l-3.4,1l0.5-3.4l-2.1-2.9L95.4,45.7z M56.8,67.4l3-2.1l0.4,3.5l2.8,2.1
		l-3.3,1.6l-1.2,3.3l-2.4-2.5h-3.6l1.8-3.1l-1-3.3L56.8,67.4z M17.9,93.4l150.1-40c3.7-1,7.5,1.2,8.5,4.9l10.7,40
		c1,3.7-1.2,7.5-4.9,8.5l-150.1,40c-3.7,1-7.5-1.2-8.5-4.9l-10.7-40C12,98.2,14.2,94.4,17.9,93.4z M16.7,102.7l9.8,36.7
		c0.7,2.8,3.6,4.4,6.3,3.7l146.8-39.2c2.8-0.7,4.4-3.6,3.7-6.3l-9.8-36.7c-0.7-2.8-3.6-4.4-6.3-3.7L20.4,96.3
		C17.7,97.1,16,99.9,16.7,102.7z M100.1,37.9c-28.8,0-53,19.5-60.1,46l-3.8,1c6.8-29,32.9-50.5,63.9-50.5c18.8,0,35.8,8,47.8,20.7
		l-3.8,1C132.8,44.9,117.3,37.9,100.1,37.9z M84.2,136.5c4.8,2.1,10.2,3.3,15.8,3.3c13.1,0,24.7-6.3,31.9-16.1l5.1-1.3
		c-7.6,12.5-21.3,20.9-37,20.9c-7.6,0-14.7-2-20.9-5.4L84.2,136.5L84.2,136.5z M121.2,143.7l2.8-2.2l0.8,3.4l3.1,1.8l-3.1,1.8
		l-0.9,3.4l-2.8-2.2l-3.6,0.3l1.4-3.2l-1.4-3.2L121.2,143.7z M100,154.3l-2.1,2.8l-1.6-3.1l-3.4-1.2l2.5-2.4v-3.5l3.2,1.7l3.4-1
		l-0.5,3.4l2.1,2.9L100,154.3z M143.7,132.7l-2.8,2.3l-0.7-3.4l-2.9-1.9l3.1-1.8l1-3.4l2.6,2.3l3.6-0.3l-1.5,3.2l1.2,3.3
		L143.7,132.7L143.7,132.7z M100,162.2c28.8,0,53-19.5,60.1-46l3.8-1c-6.8,29-32.9,50.5-63.9,50.5c-18.8,0-35.8-8-47.8-20.7l3.8-1
		C67.3,155.3,82.8,162.2,100,162.2L100,162.2z M75,149.6l-2.8,2l-0.6-3.5l-2.9-2.2l3.1-1.5l1.1-3.3l2.5,2.6l3.5,0.1l-1.6,3.1
		l1.1,3.4L75,149.6L75,149.6z"/>
</g>
<g>
	<path class="st0" d="M41.1,105.6l5.3-1.2l1.6,7l22-6.4l-2.7-9.9l-28.6,8.7l-1.6-4.9l34.7-10l4.5,19.4L49,115.9l2.2,9.4l29.2-8.9
		l1.7,5.2l-34.9,9.9L41.1,105.6z"/>
	<path class="st0" d="M81.2,92.4l-3.8,1.2l-1.5-4.8l35.2-10l1.2,4l-25.6,7.9l2.9,15l15.7-5.1l1.4,5l-21.1,6.1L81.2,92.4z
		 M118.8,107.1l1.2,4.1L84.6,122l-1.6-5l25.9-7.2L106,94.3l-16,5.2l-1.7-5.1l21.7-6.3l4.5,20.2L118.8,107.1z"/>
	<path class="st0" d="M139.3,101.5l1.4-0.4l1.4,4.5l-18,6l-1.6-5.1l1.8-0.6l-7.7-28l15.2-4.6L139.3,101.5z M127.8,99.5l1.5,5
		l5.2-1.5l-6.4-23l-5.7,1.5l1.4,4.7l4.5-1.7l1.4,4.7l-4.6,1.4l1.3,4.4l4.2-1.6l1.4,4.8L127.8,99.5z M141.6,73.6l7.6-2.2l7.7,31.6
		l-5,1l-6.2-26.3l-3,1l6.2,27l-5.3,1.1l-5.3-26.6l-3,1l-1.6-5.4l3.5-1l-0.9-4.5l4.3-1L141.6,73.6z"/>
</g>
</svg>
