<?xml version="1.0" encoding="utf-8"?>
<!-- Generator: Adobe Illustrator 27.0.0, SVG Export Plug-In . SVG Version: 6.00 Build 0)  -->
<svg version="1.1" id="图层_1" xmlns="http://www.w3.org/2000/svg" xmlns:xlink="http://www.w3.org/1999/xlink" x="0px" y="0px"
	 viewBox="0 0 200.2 200" style="enable-background:new 0 0 200.2 200;" xml:space="preserve">
<style type="text/css">
	.st0{fill:#A7A0A3;}
	.st1{fill:#FF0600;}
</style>
<path class="st0" d="M103.95,150.55c0-20.03,16.23-36.17,36.17-36.17c4.15,0,8.21,0.71,12.09,2.03V66.02l-48.26-48.26H43.6
	c-6.71,0-12.09,5.38-12.09,12.09v144.79c0,6.62,5.38,12.09,12.09,12.09h96.52C120.19,186.72,103.95,170.49,103.95,150.55z
	 M106.42,31.79l29.82,29.82h-29.82V31.79z M79.78,29.85c9.97,0,18.09,8.12,18.09,18.09s-8.12,18.09-18.09,18.09
	s-18.09-8.12-18.09-18.09S69.81,29.85,79.78,29.85z M43.6,93.2c0-12,24.09-18.09,36.17-18.09s36.17,6.09,36.17,18.09v9.09H43.6V93.2
	z M85.87,150.55H43.6v-12.09h42.26V150.55z M97.87,126.37H43.6v-12.09h54.35v12.09H97.87z"/>
<path class="st1" d="M163.16,126.37c-13.23-11.73-33.44-10.5-45.17,2.74s-10.5,33.44,2.74,45.17c11.65,10.41,28.85,10.59,40.76,1.41
	l13.85,12.35c2.47,2.21,6.26,1.94,8.47-0.53c2.21-2.47,1.94-6.26-0.53-8.47l-13.85-12.35C177.1,153.72,174.8,136.7,163.16,126.37
	L163.16,126.37z M158.3,164.84c-8.03,9-21.88,9.88-30.97,1.85s-9.88-21.88-1.85-30.97c8.03-9.09,21.88-9.88,30.97-1.85
	C165.54,141.9,166.33,155.84,158.3,164.84z"/>
</svg>
