<svg enable-background="new 0 0 200.2 200" viewBox="0 0 200.2 200" xmlns="http://www.w3.org/2000/svg"><g fill="#a7a0a3"><ellipse cx="89.46" cy="70.22" rx="9.1" ry="9.1"/><path d="m89.46 103.55c10.94 0 16.91-3.12 16.91-4.72 0-7.77-5.69-11.7-16.91-11.7s-16.91 3.94-16.91 11.7c0 1.6 5.97 4.72 16.91 4.72z"/><path d="m155.76 14.55h-82.6c-9.61 0-17.56 7.31-18.58 16.66h-14.54c-7.9.01-14.29 6.41-14.3 14.3v130.04c0 7.89 6.42 14.3 14.3 14.3h98.83c7.89 0 14.3-6.42 14.3-14.3v-13.01h2.58c10.3 0 18.7-8.4 18.7-18.7v-110.59c.01-10.4-8.39-18.7-18.69-18.7zm-66.3 96.8c-5.9 0-11.46-.85-15.65-2.4-7.88-2.9-9.05-7.59-9.05-10.13 0-8.52 4.26-14.54 12.02-17.48-2.72-3.07-4.22-7.03-4.22-11.13 0-9.32 7.58-16.91 16.91-16.91 9.32 0 16.91 7.58 16.91 16.91 0 4.27-1.6 8.15-4.22 11.13 7.76 2.93 12.02 8.96 12.02 17.48-.01 9.25-13.32 12.53-24.72 12.53zm73.3 32.5c0 3.9-3.1 7-7 7h-2.58v-105.34c0-7.89-6.42-14.3-14.3-14.3h-72.42c.86-2.89 3.51-4.96 6.7-4.96h82.6c3.9 0 7 3.1 7 7z"/></g><path d="m63.45 141.75h41.61c2.15 0 3.9 1.75 3.9 3.9s-1.75 3.9-3.9 3.9h-41.61c-2.15 0-3.9-1.75-3.9-3.9-0-2.16 1.74-3.9 3.9-3.9z" fill="#ff0600"/><path d="m59.55 127.98c0-2.15 1.75-3.9 3.9-3.9h31.21c2.15 0 3.9 1.75 3.9 3.9s-1.75 3.9-3.9 3.9h-31.21c-2.16 0-3.9-1.75-3.9-3.9z" fill="#ff0600"/><path d="m115.47 167.75h-52.02c-2.15 0-3.9-1.75-3.9-3.9s1.75-3.9 3.9-3.9h52.02c2.15 0 3.9 1.75 3.9 3.9 0 2.16-1.75 3.9-3.9 3.9z" fill="#ff0600"/></svg>