<?xml version="1.0" encoding="utf-8"?>
<!-- Generator: Adobe Illustrator 27.0.0, SVG Export Plug-In . SVG Version: 6.00 Build 0)  -->
<svg version="1.1" id="图层_1" xmlns="http://www.w3.org/2000/svg" xmlns:xlink="http://www.w3.org/1999/xlink" x="0px" y="0px"
	 viewBox="0 0 200 200" style="enable-background:new 0 0 200 200;" xml:space="preserve">
<path d="M100.05,175.06c-41.29,0.03-75.08-33.31-75.14-74.97c-0.03-41.76,33.55-75.14,75.08-75.14c42.07,0,74.94,33.81,75.11,74.97
	C175.23,141.35,141.55,174.99,100.05,175.06L100.05,175.06z M141.04,105.95c-0.44,0.4-0.7,0.64-0.97,0.91
	c-1.07,1.07-2.15,2.18-3.25,3.22c-0.67,0.64-1.48,0.94-2.38,0.54c-0.87-0.4-1.11-1.21-1.11-2.08c0-0.81,0.07-1.61,0.07-2.42
	c0-0.97-0.03-1.95-0.13-2.88c-0.1-0.94-0.67-1.58-1.58-1.85c-0.5-0.13-0.97-0.27-1.48-0.37c-0.47-0.1-0.94-0.2-1.41-0.34
	c-1.54-0.54-1.91-1.91-0.94-3.19c0.13-0.17,0.27-0.34,0.44-0.47c0.37-0.37,0.74-0.7,1.11-1.07c0.6-0.64,1.21-1.24,1.74-1.91
	c0.7-0.87,0.84-1.85,0.44-2.88c-0.2-0.54-0.44-1.04-0.67-1.54c-0.34-0.7-0.74-1.38-1.07-2.08c-0.27-0.54-0.54-1.11-0.74-1.71
	c-0.54-1.74,0-3.05,1.64-3.89c0.64-0.34,1.34-0.54,2.01-0.77c0.97-0.34,1.95-0.6,2.92-0.94c1.51-0.54,2.52-1.58,3.02-3.12
	c0.27-0.81,0.47-1.61,0.74-2.38c0.3-0.94,0.6-1.91,1.04-2.78c0.74-1.51,1.98-2.45,3.66-2.72c2.42-0.4,4.53,0.3,6.31,1.95
	c0.74,0.67,1.34,1.48,1.98,2.21c0.47,0.5,0.91,1.07,1.41,1.54c1.17,1.11,3.09,0.37,3.59-0.97c0.67-1.88-0.6-3.96-2.58-4.09
	c-0.91-0.07-1.81-0.1-2.72-0.13c-1.68-0.07-3.15-0.67-4.29-1.91c-0.74-0.81-1.38-1.71-2.05-2.58c-0.44-0.54-0.81-1.14-1.27-1.64
	c-0.37-0.44-0.64-0.44-1.14-0.13c-0.4,0.27-0.77,0.6-1.11,0.91c-0.6,0.57-1.21,1.17-1.85,1.71c-0.44,0.37-0.94,0.74-1.44,1.01
	c-1.34,0.7-2.78,0.5-3.82-0.6c-0.47-0.5-0.87-1.17-1.17-1.81c-0.6-1.41-0.6-2.88-0.1-4.33c0.3-0.91,0.74-1.78,1.11-2.68
	c0.23-0.54,0.5-1.07,0.67-1.64c0.23-0.67,0.1-1.01-0.47-1.38c-0.44-0.27-0.94-0.54-1.44-0.7c-1.11-0.37-2.21-0.64-3.32-0.97
	c-0.37-0.1-0.77-0.2-1.14-0.37c-0.64-0.3-0.91-0.84-0.84-1.51c0.07-0.67,0.47-1.07,1.07-1.27c0.37-0.1,0.81-0.17,1.17-0.17
	c3.09,0.03,5.94,0.81,8.45,2.65c0.5,0.37,1.01,0.74,1.51,1.07c0.2,0.13,0.4,0.2,0.7,0.37c0.13-0.37,0.27-0.67,0.34-0.97
	c0.3-1.68-0.2-2.48-1.81-2.88c-0.74-0.2-1.48-0.34-2.18-0.54c-1.74-0.47-2.88-1.58-3.46-3.29c-0.17-0.47-0.3-0.97-0.44-1.48
	s-0.27-0.97-0.4-1.48c-0.27-0.91-0.87-1.48-1.81-1.61c-0.84-0.13-1.64-0.23-2.48-0.3c-2.38-0.17-4.53-0.91-6.27-2.55
	c-0.27-0.27-0.6-0.47-0.87-0.7c-0.97-0.84-2.08-1.01-3.22-0.5c-0.97,0.4-1.88,0.87-2.78,1.41c-0.94,0.54-1.85,1.21-2.78,1.78
	c-0.47,0.27-0.97,0.5-1.48,0.64c-0.91,0.23-1.78-0.2-2.11-1.04c-0.17-0.4-0.23-0.84-0.23-1.24c-0.03-0.74,0.03-1.44-0.03-2.18
	c-0.07-1.11-0.57-1.64-1.68-1.85c-0.37-0.07-0.74-0.07-1.11-0.03c-0.81,0.1-1.14,0.37-1.31,1.17c-0.1,0.5-0.13,1.01-0.23,1.51
	c-0.23,1.11-0.7,1.54-1.85,1.68c-0.1,0-0.2,0.03-0.3,0.07c0,0.07-0.03,0.13,0,0.2c0.07,0.13,0.17,0.27,0.23,0.4
	c1.91,2.65,2.55,5.64,2.31,8.82c-0.03,0.23-0.07,0.47-0.13,0.7c-0.2,0.67-0.57,1.14-1.31,1.27c-0.74,0.1-1.31-0.2-1.68-0.84
	c-0.23-0.4-0.4-0.84-0.64-1.21c-0.44-0.7-0.84-1.44-1.38-2.08c-0.64-0.7-1.51-0.91-2.42-0.57c-0.54,0.2-0.81,0.6-0.84,1.17
	c-0.03,0.74,0.27,1.27,0.87,1.61c0.6,0.34,1.27,0.57,1.91,0.84c0.4,0.17,0.87,0.3,1.24,0.57c0.97,0.64,1.04,1.88,0.17,2.58
	c-0.37,0.3-0.84,0.5-1.27,0.6c-1.48,0.37-2.92,0.34-4.36-0.17c-0.23-0.1-0.5-0.17-0.67-0.2c-0.1,0.1-0.13,0.1-0.13,0.13
	c-0.03,0.1-0.1,0.2-0.13,0.3c-0.34,0.84-0.97,1.34-1.85,1.54c-0.47,0.1-0.94,0.17-1.44,0.23c-0.84,0.07-1.68,0.07-2.48,0.13
	c-5.33,0.4-9.02,3.15-11.07,8.05c-0.47,1.11-0.7,2.31-1.01,3.46c-0.2,0.74-0.3,1.48-0.5,2.18s-0.64,1.17-1.41,1.24
	c-0.7,0.07-1.27-0.34-1.58-1.11c-0.2-0.57-0.37-1.17-0.47-1.78c-0.23-1.38-0.44-2.75-0.67-4.13c-0.13-0.74-0.3-1.48-0.54-2.18
	c-0.27-0.81-0.67-1.04-1.48-0.77c-0.64,0.2-1.27,0.44-1.85,0.77c-1.85,1.04-3.52,2.38-4.96,3.92c-0.47,0.5-0.87,1.04-1.21,1.58
	c-0.74,1.17-0.47,1.78,0.87,2.21c0.23,0.07,0.47,0.17,0.7,0.17c0.87,0,1.71,0,2.55-0.1c0.81-0.1,1.58-0.37,2.35-0.54
	c0.77-0.13,1.41,0.2,1.68,0.81c0.27,0.64,0.03,1.34-0.64,1.81c-0.5,0.34-1.01,0.64-1.51,0.94c-0.17,0.1-0.34,0.17-0.47,0.23
	c0.37,0.3,0.64,0.4,0.87,0.47c1.51,0.57,1.95,1.88,1.01,3.22c-0.17,0.27-0.37,0.5-0.57,0.77c-0.5,0.6-0.74,1.31-0.67,2.11
	c0.07,0.64,0.17,1.27,0.27,1.91c0.1,0.5,0.17,1.01-0.13,1.48c-0.27,0.44-0.13,0.74,0.37,0.81c0.44,0.07,0.91,0.03,1.34-0.03
	c1.07-0.17,2.15-0.4,3.22-0.6c0.13-0.03,0.27-0.07,0.37-0.1c0.94-0.27,1.85-0.6,2.78-0.84c2.01-0.47,4.06-0.7,6.14-0.4
	c2.01,0.3,3.66,1.17,4.93,2.78c0.4,0.5,0.81,1.01,1.11,1.58c1.31,2.45,3.19,4.33,5.67,5.64c0.67,0.37,1.31,0.87,1.85,1.41
	c1.01,0.94,1.27,2.11,0.87,3.39c-0.23,0.74-0.57,1.44-0.97,2.11c-0.54,0.87-1.14,1.68-1.71,2.52c-0.17,0.23-0.27,0.47-0.47,0.87
	c0.81,0,1.44,0.03,2.08,0.03c2.05,0,4.09,0.03,6.11,0.47c3.52,0.74,6.17,2.62,7.65,5.9c1.27,2.82,0.91,5.43-1.27,7.72
	c-0.77,0.77-1.61,1.51-2.42,2.25c-0.84,0.77-1.71,1.48-2.52,2.28c-1.01,0.97-1.68,2.15-1.98,3.52c-0.17,0.64-0.34,1.31-0.5,1.95
	c-0.5,1.81-1.61,3.05-3.35,3.72c-0.74,0.27-1.44,0.57-2.18,0.84c-1.04,0.37-1.68,1.07-1.98,2.15c-0.2,0.74-0.4,1.44-0.67,2.15
	c-0.44,1.17-1.21,2.11-2.31,2.65c-0.81,0.4-1.61,0.7-2.45,1.01c-0.6,0.23-1.24,0.4-1.85,0.6c-0.84,0.3-1.41,0.84-1.74,1.68
	c-0.17,0.47-0.37,0.94-0.57,1.41c-0.57,1.48-1.61,2.52-3.09,3.09c-0.54,0.2-1.11,0.44-1.64,0.67c-1.74,0.77-2.72,2.15-2.88,4.06
	c-0.07,0.81-0.03,1.61,0.1,2.42c0.13,1.01,0.44,1.98,0.64,2.99c0.1,0.57,0.23,1.17,0.27,1.74c0.03,1.44-1.07,2.38-2.48,2.08
	c-0.57-0.1-1.14-0.34-1.64-0.64c-2.88-1.78-4.19-4.26-3.69-7.68c0.17-1.27,0.44-2.55,0.67-3.79c0.4-2.05,0.34-4.06-0.44-6
	c-0.44-1.11-0.84-2.21-1.24-3.32c-1.01-2.62-1.04-5.23-0.1-7.88c0.54-1.48,1.01-2.99,1.54-4.5c0.5-1.38,0.67-2.82,0.64-4.26
	c-0.07-1.68-0.7-3.05-2.05-4.09c-0.6-0.47-1.17-0.94-1.78-1.41c-1.71-1.34-2.45-3.09-2.15-5.23c0.13-1.04,0.3-2.08,0.47-3.12
	c0.23-1.54,0.07-2.99-0.7-4.36c-0.27-0.5-0.57-0.97-0.81-1.48c-0.37-0.74-0.74-1.48-1.04-2.25c-0.57-1.48-0.34-2.92,0.57-4.23
	c0.4-0.57,0.84-1.11,1.34-1.61c1.07-1.04,2.21-2.01,3.35-3.02c1.17-1.07,2.28-2.21,3.22-3.49c0.13-0.2,0.4-0.37,0.27-0.74
	c-0.27,0.03-0.54,0.07-0.81,0.13c-1.95,0.37-3.62-0.1-4.9-1.71c-0.2-0.23-0.4-0.5-0.6-0.74c-0.7-0.7-1.44-1.44-2.18-2.11
	c-0.37-0.34-0.81-0.64-1.21-0.94c-1.07-0.87-1.85-1.95-2.28-3.25c-0.23-0.67-0.47-1.31-0.67-1.98c-0.34-1.14-0.97-2.08-1.88-2.85
	c-0.5-0.4-0.97-0.84-1.41-1.31c-1.17-1.21-1.51-2.65-1.01-4.23c0.27-0.84,0.67-1.64,1.07-2.42c0.5-0.94,1.07-1.81,1.58-2.72
	c0.37-0.67,0.74-1.38,1.04-2.08c0.13-0.37,0.2-0.77,0.2-1.17c0-0.5-0.37-0.67-0.77-0.34c-0.47,0.4-0.91,0.84-1.24,1.34
	c-0.74,1.04-1.38,2.11-2.05,3.15c-0.23,0.37-0.47,0.77-0.77,1.11c-0.54,0.64-1.21,0.84-1.88,0.54c-0.64-0.27-1.01-0.91-0.97-1.71
	c0.03-0.47,0.13-0.97,0.27-1.41c1.41-4.8,3.82-9.02,7.65-12.34c1.14-1.01,2.42-1.88,3.62-2.82c0.2-0.17,0.44-0.34,0.77-0.6
	c-2.18-0.67-3.92-1.68-5.47-3.05C29,62.45,17.59,104.58,39.4,138.8c22.21,34.79,63.1,39.45,88.7,27.81
	c-0.17-0.4-0.34-0.77-0.47-1.17c-1.44-3.49-1.48-6.98-0.23-10.53c1.11-3.12,2.95-5.74,5.67-7.65c1.54-1.07,3.19-1.98,4.76-2.99
	c0.94-0.57,1.88-1.14,2.75-1.81c1.34-0.97,1.88-2.28,1.58-3.96c-0.17-1.04-0.34-2.08-0.5-3.09c-0.47-2.82,0.17-5.33,2.05-7.51
	c0.64-0.74,1.31-1.44,1.95-2.15c0.6-0.64,1.21-1.21,1.81-1.85c0.81-0.87,0.77-0.97-0.17-1.68c-0.6-0.47-1.27-0.94-1.81-1.48
	c-0.97-0.97-1.21-2.15-0.64-3.39c0.3-0.64,0.7-1.27,1.14-1.85c0.47-0.6,1.04-1.17,1.54-1.74c0.1-0.13,0.17-0.3,0.3-0.54
	c-0.67-0.1-1.24-0.2-1.81-0.3c-2.01-0.37-3.32-1.54-3.89-3.52c-0.23-0.77-0.37-1.58-0.54-2.35
	C141.21,106.69,141.14,106.42,141.04,105.95L141.04,105.95z M98.51,37.15c0.77,0.17,1.38,0.3,2.01,0.44
	c0.03-0.07,0.07-0.13,0.1-0.17c-0.47-0.47-0.91-0.91-1.44-1.48C98.94,36.41,98.74,36.72,98.51,37.15z M93.21,40.34
	c0.44-0.44,0.81-0.77,1.21-1.17c-0.67-0.34-1.24-0.37-1.88-0.2C92.74,39.4,92.94,39.77,93.21,40.34z"/>
</svg>
