<?xml version="1.0" encoding="utf-8"?>
<!-- Generator: Adobe Illustrator 27.0.0, SVG Export Plug-In . SVG Version: 6.00 Build 0)  -->
<svg version="1.1" id="图层_1" xmlns="http://www.w3.org/2000/svg" xmlns:xlink="http://www.w3.org/1999/xlink" x="0px" y="0px"
	 viewBox="0 0 200 200" style="enable-background:new 0 0 200 200;" xml:space="preserve" fill="#989898">
<path d="M176.6,50.82h-26.05V29.37c0-2.45-2.14-4.6-4.6-4.6H54.04c-2.45,0-4.6,2.14-4.6,4.6v21.45H23.4c-2.45,0-4.6,2.14-4.6,4.6
	c0,26.66,16.55,40.75,33.71,41.67c6.74,18.39,23.59,31.87,44.12,33.4c-0.61,0.92-1.23,1.84-1.23,3.06v10.11H79.78
	c-1.53,0-3.06,0.92-3.98,2.14l-14.1,22.37c-0.92,1.53-0.92,3.06,0,4.6s2.45,2.45,3.98,2.45h68.94c1.84,0,3.37-0.92,3.98-2.45
	c0.92-1.53,0.61-3.37-0.31-4.6l-15.01-22.37c-0.92-1.23-2.14-2.14-3.68-2.14H104.9v-10.11c0-1.23-0.31-2.14-1.23-3.06
	c20.22-1.53,37.38-15.01,43.82-33.4c16.85-0.92,33.71-15.01,33.71-41.67C181.2,52.97,179.06,50.82,176.6,50.82z M49.44,87.28
	C39.33,85.14,29.83,76.56,28.3,59.71h21.14V87.28z M115.62,76.97l8.51,28.14L100,88.32l-24.13,16.79l8.51-28.14L60.96,59.21
	l29.38-0.59L100,30.85l9.66,27.77l29.38,0.59L115.62,76.97z M150.56,87.59V60.01h21.14C170.17,76.56,160.67,85.45,150.56,87.59z"/>
</svg>
