<?xml version="1.0" encoding="utf-8"?>
<!-- Generator: Adobe Illustrator 27.0.0, SVG Export Plug-In . SVG Version: 6.00 Build 0)  -->
<svg version="1.1" id="图层_1" xmlns="http://www.w3.org/2000/svg" xmlns:xlink="http://www.w3.org/1999/xlink" x="0px" y="0px"
	 viewBox="0 0 1047.01 1034.07" style="enable-background:new 0 0 1047.01 1034.07;" xml:space="preserve" fill="#FF2C21">
<path d="M365.71,572.87c-79.41-62.04-117.83-142.99-110.12-243.51c5.04-65.73,32.62-122.38,80.17-168.3
	c109.68-105.92,277.18-98.96,378.16,2.58c57.88,58.2,84.26,129.73,77.76,211.77c-6.51,82.08-45.11,147.22-110.89,197.32
	c2.37,1.14,4.08,2.03,5.84,2.79c46.06,19.88,86.89,47.63,122.61,82.71c35.45,34.82,63.82,74.75,84.91,119.92
	c18.74,40.15,30.09,82.25,35.43,126.05c1.41,11.53,1.7,23.22,2.19,34.84c0.32,7.47-2.69,10.45-10.01,10.46
	c-20.48,0.05-40.95,0.06-61.43-0.01c-6.88-0.02-9.67-2.69-10-9.63c-1.44-30-5.72-59.52-14.91-88.18
	c-15.01-46.8-39.11-88.32-72.71-124.28c-36.69-39.27-80.26-68.06-130.94-85.97c-30.6-10.81-62.15-16.58-94.61-17.78
	c-82.54-3.05-156.27,20.89-220.09,73.23c-60.82,49.88-99.56,113.62-114.34,191.18c-3.22,16.91-4.28,34.24-6.01,51.41
	c-0.74,7.32-3.11,10.01-10.67,10.03c-20.14,0.03-40.29,0.04-60.43,0c-7.61-0.02-10.6-3.04-10.4-10.66
	c1.26-49.35,11.38-96.85,29.97-142.55c18.69-45.94,45.06-86.91,78.58-123.51c38.84-42.43,85-74.27,137.3-97.61
	C362.59,574.52,364.03,573.72,365.71,572.87z M336.06,354.14c0.14,105.03,85.97,188.1,188.75,187.3
	c104.5-0.81,186.59-86.24,186.2-187.91c-0.4-104.8-85.79-187.85-188.56-187.08C417.14,167.24,335.73,253,336.06,354.14z"/>
</svg>
