<?xml version="1.0" encoding="utf-8"?>
<!-- Generator: Adobe Illustrator 27.0.0, SVG Export Plug-In . SVG Version: 6.00 Build 0)  -->
<svg version="1.1" id="图层_1" xmlns="http://www.w3.org/2000/svg" xmlns:xlink="http://www.w3.org/1999/xlink" x="0px" y="0px"
	 viewBox="0 0 1047.01 1034.07" style="enable-background:new 0 0 1047.01 1034.07;" xml:space="preserve">
<path d="M147.25,628.12c-15.24,0-29.71-0.17-44.17,0.05c-11.54,0.18-22.49-2.03-32.89-6.94c-14.5-6.85-25.48-17.42-32.63-31.79
	c-1.05-2.12-1.36-4.79-1.38-7.21c-0.13-13.67,0.52-27.37-0.25-40.99c-0.58-10.2,3.47-18.05,9.41-25.46c2.39-2.98,5.03-5.79,7.73-8.5
	C200.72,359.59,348.39,211.93,496.04,64.23c7.44-7.45,15.91-12.54,26.73-12.77c8.15-0.17,15.36,2.54,21.75,7.45
	c2.23,1.72,4.23,3.76,6.23,5.76c147.08,147.07,294.16,294.16,441.22,441.25c2.83,2.83,5.58,5.73,8.24,8.71
	c7.34,8.22,11.83,17.22,10.77,28.92c-0.94,10.41-0.88,21.04,0,31.47c0.85,10.16-2.84,18.29-8.72,25.73
	c-13.66,17.3-31.52,26.81-53.72,27.29c-14.16,0.31-28.33,0.07-42.5,0.07c-1.81,0-3.61,0-6.29,0c0,2.66,0,4.91,0,7.16
	c0,113.5,0,227.01,0,340.51c0,6.81,0,6.83-6.71,6.83c-246.33,0-492.65,0-738.98,0c-6.82,0-6.83-0.02-6.83-6.75
	c0-113.33,0-226.66,0-339.99C147.25,633.57,147.25,631.26,147.25,628.12z M924.67,550.45c-133.61-134.2-267.43-268.61-401.23-403.01
	C389.46,282.05,255.66,416.48,121.98,550.79c33.56,0,67.97,0,102.71,0c0,2.72,0,4.87,0,7.01c0,113.68,0,227.35,0,341.03
	c0,6.68,0.01,6.69,6.86,6.69c51.67,0,103.34,0,155,0c1.17,0,2.56,0.38,3.45-0.12c1.28-0.73,2.59-1.95,3.14-3.27
	c0.53-1.28,0.13-2.95,0.13-4.45c0-80.01-0.04-160.01,0.03-240.02c0.02-24.83,18.07-43.85,42.26-43.95
	c58.67-0.23,117.34-0.12,176-0.02c9.24,0.01,17.69,3.02,24.99,8.76c12.33,9.69,17.18,22.86,17.18,38.13
	c0.02,79.34,0.01,158.68,0.01,238.02c0,6.92,0,6.93,7.12,6.93c51.17,0,102.34,0.02,153.5-0.01c8.67,0,7.81,0.9,7.81-7.71
	c0.02-113.34,0.01-226.69,0.01-340.03c0-2.26,0-4.52,0-7.33C857.23,550.45,891.44,550.45,924.67,550.45z M462.07,682.13
	c-0.13,2.15-0.27,3.47-0.28,4.78c-0.01,71.13,0.02,142.27-0.1,213.4c-0.01,4.23,1.36,5.31,5.42,5.3
	c37.31-0.13,74.63-0.16,111.94,0.03c4.7,0.02,5.87-1.5,5.86-5.97c-0.11-70.47-0.12-140.94,0.01-211.4c0.01-4.62-1.04-6.28-6.05-6.25
	c-37.15,0.22-74.29,0.12-111.44,0.12C465.8,682.13,464.17,682.13,462.07,682.13z" fill="#FF2C21"/>
</svg>
