<?xml version="1.0" encoding="utf-8"?>
<!-- Generator: Adobe Illustrator 27.0.0, SVG Export Plug-In . SVG Version: 6.00 Build 0)  -->
<svg version="1.1" id="_图层_1" xmlns="http://www.w3.org/2000/svg" xmlns:xlink="http://www.w3.org/1999/xlink" x="0px" y="0px"
	 viewBox="0 0 62.7 71.8" style="enable-background:new 0 0 62.7 71.8;" xml:space="preserve">
<style type="text/css">
	.st0{fill:url(#SVGID_1_);}
	.st1{fill:url(#SVGID_00000132049714038899026000000008053205504669450920_);}
</style>
<g>
	<linearGradient id="SVGID_1_" gradientUnits="userSpaceOnUse" x1="1.67" y1="42.2532" x2="60.7518" y2="42.2532">
		<stop  offset="0" style="stop-color:#FC8864"/>
		<stop  offset="1" style="stop-color:#F76155"/>
	</linearGradient>
	<path class="st0" d="M56.7,42.7c1.3-1.5,2.6-3,3.9-4.4c0.1-0.2,0.2-0.3,0.2-0.5c0-0.2-0.1-0.3-0.3-0.3c-0.3-0.1-0.6-0.1-0.9,0.2
		c-1.3,1.3-2.6,2.6-3.9,3.9c-0.2,0.2-0.3,0.3-0.6,0.3c-0.2,0.1-0.4,0-0.4-0.2c0-0.4,0-0.8,0.3-1.1c0.7-0.7,1.3-1.4,2-2.1
		c1-1,1.9-2.1,2.9-3.1c0.1-0.1,0.2-0.2,0.1-0.4c0-0.1,0-0.2-0.1-0.3c-0.1-0.2-0.2-0.3-0.5-0.3c-0.3,0-0.6,0.1-0.9,0.4
		c-0.5,0.6-1,1.2-1.5,1.8c-1.1,1.2-2.1,2.5-3.1,3.8c-0.1,0.2-0.3,0.3-0.5,0.4c-0.2,0.1-0.3,0.1-0.5-0.1c-0.2-0.2-0.2-0.7,0-1
		c0.5-0.7,1-1.4,1.5-2c0.7-0.9,1.4-1.9,2.1-2.8c0.1-0.2,0.2-0.4,0.1-0.6c0-0.2-0.1-0.3-0.3-0.3c-0.2,0-0.4,0.1-0.5,0.2
		c-1.1,1.4-2.2,2.7-3.3,4.1c-0.6,0.7-1.3,1.4-1.9,2.1c-0.2,0.2-0.5,0.4-0.8,0.6C50,41,49.8,41,49.7,41.1c-0.2,0.1-0.4,0-0.4-0.3
		c0-0.2,0-0.4,0.2-0.6c0.9-1.2,1.8-2.3,2.6-3.5c0.2-0.3,0.3-0.7,0.3-1.1c0-0.3-0.2-0.5-0.5-0.5c-0.5,0.1-0.9,0.2-1.2,0.6
		c-1.8,2.5-3.8,4.8-6.1,6.8C41.9,45,38.7,46.9,35,48c-1.4,0.4-2.8,0.8-4.3,1c-0.7,0.1-1.4,0.2-2.1,0.2c-0.6,0.1-1.3,0.1-1.9,0.1
		c-0.4,0-0.9,0-1.3,0c-0.9,0-1.8-0.1-2.6-0.2c-0.6,0-1.3-0.2-1.9-0.2c-0.6-0.1-1.1-0.1-1.7-0.2c-0.3,0-0.6,0-0.9-0.1
		c-0.3,0-0.5-0.1-0.8-0.3c-0.2-0.1-0.3-0.2-0.3-0.4c0-0.2,0-0.2,0.2-0.2c0.3,0,0.6-0.1,0.9-0.1c1.1-0.1,2.1-0.1,3.2-0.2
		c0.3,0,0.5-0.1,0.7-0.3c0.2-0.1,0.2-0.3,0-0.4c-0.2-0.1-0.3-0.1-0.5-0.2c-0.5-0.1-1.1-0.2-1.6-0.3c-0.9-0.1-1.7-0.1-2.6-0.2
		c-0.6,0-1.2-0.2-1.7-0.5c-0.1-0.1-0.2-0.1-0.2-0.2c-0.2-0.3,0-0.6,0.3-0.7c0.2,0,0.4,0,0.5,0c0.7,0,1.5,0.1,2.2,0.1
		c0.4,0,0.8,0.1,1.2,0.1c0.5,0,1,0.1,1.6,0.2c0.2,0,0.3,0,0.5-0.1c0.2-0.1,0.2-0.2,0.2-0.4c-0.1-0.3-0.3-0.4-0.6-0.5
		c-0.1,0-0.1,0-0.2,0c-0.5-0.1-1.1-0.1-1.6-0.2c-0.5-0.1-1-0.1-1.5-0.2c-0.5-0.1-1.1-0.1-1.6-0.2c-0.6,0-1.2-0.2-1.8-0.5
		c-0.2-0.1-0.3-0.2-0.5-0.3c-0.1-0.1-0.2-0.3-0.1-0.5c0.2-0.3,0.5-0.5,0.9-0.5c0.4,0,0.8,0.1,1.2,0.1c0.6,0.1,1.2,0.1,1.8,0.2
		c0.6,0.1,1.2,0.1,1.8,0.2c0.6,0.1,1.2,0.1,1.8,0.2c0.2,0,0.3,0,0.5-0.1c0.2,0,0.2-0.1,0.2-0.3c0-0.2-0.3-0.6-0.6-0.6
		c-0.7-0.1-1.4-0.2-2.1-0.2c-1-0.1-2.1-0.2-3.1-0.4c-0.4,0-0.7-0.2-1-0.5c-0.2-0.2-0.2-0.4,0-0.5c0.3-0.2,0.6-0.4,1-0.3
		c0.2,0,0.4,0,0.6,0.1c0.7,0,1.3,0.1,2,0.2c0.7,0.1,1.4,0.1,2.1,0.1c1,0,2,0,3,0c0.4,0,0.8-0.1,1.2-0.2c0.1,0,0.1,0,0.2-0.1
		c-1.4-0.4-2.7-0.8-3.9-1.3c-0.5-0.2-1-0.5-1.5-0.8c-0.2-0.1-0.4-0.3-0.5-0.5c-0.2-0.2-0.1-0.4,0.2-0.5c0.5-0.1,1-0.1,1.5,0.1
		c2.7,1.1,5.6,1.6,8.5,1.8c0.9,0.1,1.9,0,2.8,0c1,0,2.1-0.2,3.1-0.4c2.5-0.5,4.9-1.4,7.1-2.8c2.6-1.7,4.8-3.8,6.8-6.2
		c1-1.2,1.8-2.6,2.3-4c0.6-1.5,0.8-3.1,0.5-4.7c-0.2-1.2-0.7-2.2-1.5-3.1C51.1,17.1,51,17,50.9,17c-1.3-0.7-2.7-1.2-4.1-1.2
		c-1.2-0.1-2.5,0.1-3.7,0.4c-1.5,0.4-2.9,1.1-4.2,2c-2.3,1.5-4.2,3.4-5.9,5.5c-0.1,0.1-0.1,0.2-0.2,0.2c0,0-0.1,0-0.1,0
		c0,0-0.1,0-0.1-0.1c-3.4-1.9-6.9-3.4-10.7-4.2c-1.5-0.3-3-0.5-4.6-0.6c-1.2,0-2.3,0.1-3.5,0.3c-1.5,0.3-3,0.8-4.3,1.6
		c-1.8,1.1-3.2,2.5-4.4,4.2c-1.9,2.9-3.1,6.1-3.3,9.5c0,0.2-0.1,0.4-0.1,0.6l0.1,0c0,0.3,0,0.6,0,1c0,0.1,0.1,0.2,0.1,0.3
		c0,0.5,0.1,1.1,0.2,1.7c0.2,1.8,0.7,3.5,1.4,5.1c0.9,2.3,2.2,4.4,3.6,6.4c2,2.8,4.3,5.2,6.7,7.5c2.7,2.5,5.6,4.8,8.6,6.9
		c2.4,1.7,4.8,3.3,7.4,4.7c0.2,0.1,0.4,0.1,0.6,0c2.4-1.4,4.7-2.9,7-4.5c5.2-3.7,10-7.8,14.5-12.3c2.4-2.4,4.8-4.9,6.9-7.6
		c0.5-0.6,0.9-1.2,1.4-1.8c0.2-0.3,0.3-0.6,0.3-1c0-0.2,0-0.3-0.2-0.5c-0.1,0.1-0.1,0.1-0.2,0.2c-0.8,0.8-1.7,1.7-2.5,2.5
		c0,0-0.1,0.1-0.1,0.1c-0.2,0.1-0.5,0.2-0.7,0.1c-0.2-0.1-0.2-0.3-0.2-0.5C56.4,43.2,56.5,42.9,56.7,42.7z"/>
	
		<linearGradient id="SVGID_00000092417306173245442530000009587252852232027024_" gradientUnits="userSpaceOnUse" x1="21.7812" y1="9.8817" x2="36.99" y2="9.8817">
		<stop  offset="0" style="stop-color:#FC8864"/>
		<stop  offset="1" style="stop-color:#F76155"/>
	</linearGradient>
	<path style="fill:url(#SVGID_00000092417306173245442530000009587252852232027024_);" d="M23.8,17c1.4,1.2,2.9,1.5,4.7,1.2
		c1.3-0.2,2.4-0.7,3.5-1.4c1.8-1.2,3.1-2.8,4-4.6c0.7-1.4,1-2.8,1-4.4l0,0c0-0.9-0.1-1.8-0.4-2.6c-0.5-1.5-1.5-2.6-3-3.2
		c-1.2-0.5-2.4-0.6-3.7-0.3c-1.2,0.2-2.4,0.8-3.4,1.5C24,5,22.5,7.5,21.9,10.6c-0.2,1.1-0.2,2.3,0.1,3.4
		C22.3,15.1,22.9,16.2,23.8,17z"/>
</g>
</svg>
