<?xml version="1.0" standalone="no"?><!DOCTYPE svg PUBLIC "-//W3C//DTD SVG 1.1//EN" "http://www.w3.org/Graphics/SVG/1.1/DTD/svg11.dtd"><svg t="1737373728892" class="icon" viewBox="0 0 1024 1024" version="1.1" xmlns="http://www.w3.org/2000/svg" p-id="4293" xmlns:xlink="http://www.w3.org/1999/xlink" width="200" height="200"><path d="M498.41664 945.23904c-36.58752 0-69.71904-20.13696-84.40832-51.29728l-1.19296-2.52416-2.74432-0.53248c-108.39552-20.80768-197.5808-90.45504-238.56128-186.28608l-1.14688-2.66752-2.85696-0.56832c-72.02304-14.1824-125.28128-74.40896-126.6432-143.20128v-18.67264c1.33632-63.47776 47.67232-121.09824 112.68096-140.00128l3.44576-1.00864 0.47104-3.56352c0.06144-0.45568 0.32256-1.8944 0.32256-1.8944v-0.52224C158.47936 209.60256 317.3632 60.8 512 60.8c194.72896 0 353.62304 148.88448 354.20672 331.88352v0.44544l0.27648 1.77152 0.4608 3.57376 3.47136 1.00864c65.01888 18.85696 111.37536 76.09856 112.72192 139.20256v18.68288c-2.1248 82.88256-72.5504 147.92192-160.32768 147.92192-0.04096 0-2.80576-0.01536-4.18816-0.04608h-65.88928l-1.31072 0.02048c-21.9648 0-40.54528-17.19296-41.32352-38.33344l-0.00512-236.1088c0.7936-21.50912 19.52256-38.51264 42.63936-38.51264h44.75904l-0.16896-5.67296c-4.39808-142.88384-132.39296-259.1232-285.32224-259.1232-153.344 0-281.33888 116.56192-285.32736 259.82976l-0.15872 5.65248h44.76416l1.3056-0.02048c21.9648 0 40.54528 17.19296 41.32864 38.33344v236.44672c-2.61632 20.37248-20.2752 35.456-41.26208 35.456-0.51712 0-1.03424-0.01024-1.55648-0.03072l-23.88992 0.00512 5.1968 8.3968c33.75104 54.53312 90.68544 95.15008 156.21632 111.4112l4.27008 1.0496 1.9712-3.93216c10.28608-20.49536 29.51168-36.67968 52.74112-44.43136a98.11968 98.11968 0 0 1 31.07328-5.05344c38.78912 0 73.84576 23.22944 87.22944 57.80992 8.17664 21.14048 7.35232 44.11392-2.33984 64.69632-10.31168 21.89824-29.99296 39.05536-54.016 47.04768-10.0352 3.35872-20.51072 5.05856-31.1296 5.05856z m-0.16896-116.94592c-9.3952 0-18.24256 3.6096-24.25344 9.91232-5.0944 5.3248-7.72608 12.16512-7.40352 19.24608 0.01024 16.50688 14.21312 30.12608 31.66208 30.12608 17.44896 0 31.65184-13.29664 31.65184-29.63968s-14.20288-29.6448-31.65696-29.6448z m324.54144-370.72384c-1.27488 0-2.56 0.0256-3.84 0.0768h-39.40352v182.26176h39.20384c1.49504 0.05632 2.74432 0.0768 3.9936 0.0768 48.27136 0 89.06752-36.84864 90.92608-82.14528l-0.00512-18.35008c-1.8944-46.03392-41.8048-81.92-90.87488-81.92z m-621.53216-0.68608c-48.27136 0-89.06752 36.85376-90.92096 82.14528l0.00512 18.35008c3.13344 44.94336 43.02336 79.85664 90.82368 79.86688 1.29024 0 2.57536-0.03584 3.85536-0.08192l39.43424-0.00512V456.96h-39.20384c-1.49504-0.0512-2.74432-0.0768-3.9936-0.0768z" p-id="4294" fill="#999999"></path><path d="M349.91616 299.74016c-4.85888 0-9.5744-0.93184-14.01856-2.75968-8.94976-4.25472-15.34464-11.22816-18.2784-19.75808a31.1552 31.1552 0 0 1 1.69472-24.2432l0.25088-0.50688 0.35328-0.44544c44.93824-56.8832 114.90304-90.73664 191.92832-92.87168h0.00512c19.10272 0 34.53952 14.80704 34.53952 33.01376 0 18.20672-15.4368 33.01376-34.39104 33.01376-52.33152 1.32608-103.00928 25.02144-135.41376 63.39072a37.70368 37.70368 0 0 1-26.67008 11.16672s0.00512 0 0 0z m278.92736-46.58688a36.54656 36.54656 0 0 1-14.47424-2.97472l-16.88576-6.0672a35.24096 35.24096 0 0 1-21.07904-17.3056 32.65536 32.65536 0 0 1-2.24256-25.30816c4.52096-14.21824 18.12992-23.77728 33.85344-23.77728 3.66592 0 7.30624 0.54272 10.81344 1.6128l24.47872 7.89504 0.7168 3.57376c8.49408 4.15232 14.75584 11.04896 17.64352 19.47136 2.74432 7.96672 2.14016 16.56832-1.6896 24.2432-5.74976 11.4944-17.67936 18.6368-31.13472 18.6368z" p-id="4295" fill="#999999"></path></svg>