<?xml version="1.0" encoding="UTF-8"?>
<svg id="_图层_1" data-name="图层 1" xmlns="http://www.w3.org/2000/svg" viewBox="0 0 325.79 183.09">
  <defs>
    <style>
      .cls-1 {
        fill: #da2419;
      }
    </style>
  </defs>
  <path class="cls-1" d="M290.19,7.64H56.95c-13.48,0-24.45,10.97-24.45,24.45v27.58h-15.64c-3.15,0-5.7,2.55-5.7,5.7v52.36c0,3.15,2.55,5.7,5.7,5.7h15.64v27.58c0,13.48,10.97,24.45,24.45,24.45h233.24c13.48,0,24.45-10.97,24.45-24.45V32.09c0-13.48-10.97-24.45-24.45-24.45Zm10.47,143.37c0,5.77-4.7,10.47-10.47,10.47H56.95c-5.77,0-10.47-4.7-10.47-10.47V32.09c0-5.77,4.7-10.47,10.47-10.47h233.24c5.77,0,10.47,4.7,10.47,10.47v118.92Z"/>
  <path class="cls-1" d="M268.98,76.9s0-.02,0-.05c-.02-.12-.04-.22-.08-.33-.02-.12-.04-.22-.08-.33-.06-.21-.13-.39-.19-.6l-.05-.14c-.11-.27-.24-.53-.39-.79-.06-.08-.12-.16-.16-.28-.12-.16-.24-.35-.36-.51-.06-.08-.14-.15-.2-.23-.17-.17-.35-.36-.52-.52-.04-.04-.08-.07-.13-.13-.24-.19-.49-.38-.76-.53-.06-.03-.1-.06-.17-.09-.21-.13-.43-.22-.67-.31-.09-.04-.21-.07-.31-.11-.18-.06-.39-.13-.59-.16-.12-.03-.23-.06-.37-.06-.05,0-.12-.03-.17-.04l-112.35-16.03c-.11,0-.24,0-.35-.02-.23,.07-.45,.05-.68,.06-.21,0-.38,.02-.58,.05s-.4,.05-.59,.1c-.22,.04-.42,.12-.64,.18-.11,.05-.21,.06-.33,.1-.07,.03-.1,.07-.17,.1-.2,.08-.4,.19-.58,.31-.17,.1-.32,.18-.48,.3-.16,.12-.32,.26-.46,.37-.15,.14-.32,.26-.44,.41-.13,.13-.24,.31-.37,.46-.12,.15-.24,.31-.36,.48-.11,.18-.2,.34-.28,.53-.09,.17-.17,.36-.25,.55l-.18,.54c-.07,.21-.12,.42-.16,.64,0,.05-.03,.12-.05,.2,0,.11,0,.24-.02,.35-.02,.22-.04,.43-.02,.66,0,.21,.02,.38,.05,.58s.05,.4,.1,.59l.18,.64c.05,.11,.06,.21,.1,.33l9.48,23.61-69.77,10.43c-.1,.01-.21,.06-.31,.07-.22,.04-.43,.1-.65,.15-.19,.05-.37,.12-.55,.19s-.35,.17-.55,.27c-.17,.1-.34,.19-.51,.31s-.3,.23-.46,.34c-.15,.14-.29,.25-.44,.41-.15,.14-.28,.29-.4,.45-.12,.15-.24,.31-.34,.45-.11,.18-.2,.34-.32,.52-.09,.17-.17,.36-.25,.55-.06,.18-.15,.35-.2,.55-.07,.21-.11,.44-.16,.64,0,.11-.05,.2-.07,.29-.02,.09-.01,.16,0,.24-.02,.22-.04,.43-.03,.64,0,.21,0,.42,.04,.61,0,.08,0,.19,.02,.25,.01,.1,.06,.21,.07,.31,.04,.22,.1,.43,.15,.65,.05,.19,.12,.37,.19,.55s.18,.37,.27,.55c.1,.17,.19,.34,.31,.51,.12,.16,.24,.32,.34,.46,.12,.16,.25,.29,.39,.45,.14,.15,.29,.28,.45,.4,.15,.12,.31,.24,.45,.34,.18,.11,.34,.2,.52,.32,.17,.09,.36,.17,.55,.25,.19,.08,.35,.15,.55,.2,.21,.07,.42,.12,.64,.16,.11,0,.2,.05,.29,.07l117.18,16.76c.11,0,.24,0,.35,.02,.22,.02,.43,.04,.66,.02,.21,0,.38-.02,.58-.05,.2-.03,.4-.05,.59-.1,.22-.04,.42-.12,.64-.18,.11-.05,.21-.06,.32-.1,.07-.03,.1-.07,.17-.1,.2-.08,.4-.19,.58-.31,.17-.1,.32-.18,.48-.3,.16-.12,.32-.26,.46-.37,.15-.14,.32-.26,.44-.41,.13-.13,.24-.31,.37-.46,.12-.15,.24-.31,.36-.48,.11-.18,.2-.34,.28-.53,.09-.17,.17-.36,.25-.55l.18-.54c.07-.21,.12-.42,.16-.64,0-.05,.03-.12,.05-.2l.05-.65v-.16c.02-.37-.01-.72-.07-1.07,0-.08-.03-.14-.05-.24-.07-.37-.16-.72-.29-1.06l-10.04-25.01,65.49-9.81c.1-.01,.21-.06,.31-.07,.22-.04,.43-.1,.65-.15,.19-.05,.37-.12,.55-.19,.18-.07,.35-.17,.55-.27,.17-.1,.34-.19,.51-.31,.16-.12,.3-.23,.46-.34,.15-.14,.29-.25,.44-.41,.15-.14,.28-.29,.4-.45,.12-.15,.24-.31,.34-.45,.11-.18,.2-.34,.32-.52,.09-.17,.17-.36,.25-.55,.06-.18,.15-.35,.2-.55,.07-.21,.12-.42,.16-.64,0-.11,.05-.2,.07-.29,.03-.12,0-.24,.04-.36,0-.11,.03-.19,.01-.29,0-.37,0-.73-.04-1.08Z"/>
</svg>