<?xml version="1.0" encoding="UTF-8"?>
<svg id="_图层_1" data-name="图层 1" xmlns="http://www.w3.org/2000/svg" viewBox="0 0 325.79 183.09">
  <defs>
    <style>
      .cls-1 {
        fill: #f69f00;
      }

      .cls-2 {
        fill: #e8d9c7;
      }
    </style>
  </defs>
  <path class="cls-2" d="M290.19,7.64H56.95c-13.48,0-24.45,10.97-24.45,24.45v27.58h-15.64c-3.15,0-5.7,2.55-5.7,5.7v52.36c0,3.15,2.55,5.7,5.7,5.7h15.64v27.58c0,13.48,10.97,24.45,24.45,24.45h233.24c13.48,0,24.45-10.97,24.45-24.45V32.09c0-13.48-10.97-24.45-24.45-24.45Zm10.47,143.37c0,5.77-4.7,10.47-10.47,10.47H56.95c-5.77,0-10.47-4.7-10.47-10.47V32.09c0-5.77,4.7-10.47,10.47-10.47h233.24c5.77,0,10.47,4.7,10.47,10.47v118.92Z"/>
  <polygon class="cls-1" points="165.49 132.54 226.91 132.54 189.67 50.56 128.63 50.56 165.49 132.54"/>
  <polygon class="cls-1" points="241.5 132.54 278.36 132.54 278.36 50.56 205.03 50.56 241.5 132.54"/>
</svg>