<?xml version="1.0" encoding="UTF-8"?>
<svg id="_图层_1" data-name="图层 1" xmlns="http://www.w3.org/2000/svg" viewBox="0 0 325.79 183.09">
  <defs>
    <style>
      .cls-1 {
        fill: #afcdb0;
      }

      .cls-2 {
        fill: #29aa1e;
      }
    </style>
  </defs>
  <path class="cls-1" d="M286.84,8.63H53.6c-13.48,0-24.45,10.97-24.45,24.45v27.58H13.5c-3.15,0-5.7,2.55-5.7,5.7v52.36c0,3.15,2.55,5.7,5.7,5.7h15.64v27.58c0,13.48,10.97,24.45,24.45,24.45h233.24c13.48,0,24.45-10.97,24.45-24.45V33.08c0-13.48-10.97-24.45-24.45-24.45Zm10.47,143.37c0,5.77-4.7,10.47-10.47,10.47H53.6c-5.77,0-10.47-4.7-10.47-10.47V33.08c0-5.77,4.7-10.47,10.47-10.47h233.24c5.77,0,10.47,4.7,10.47,10.47v118.92Z"/>
  <polygon class="cls-2" points="74.6 133.53 148.31 133.53 111.45 51.55 74.6 51.55 74.6 133.53"/>
  <polygon class="cls-2" points="162.13 133.53 223.56 133.53 186.32 51.55 125.27 51.55 162.13 133.53"/>
  <polygon class="cls-2" points="238.15 133.53 275.01 133.53 275.01 51.55 201.68 51.55 238.15 133.53"/>
</svg>