<?xml version="1.0" encoding="utf-8"?>
<!-- Generator: Adobe Illustrator 27.0.0, SVG Export Plug-In . SVG Version: 6.00 Build 0)  -->
<svg version="1.1" id="图层_1" xmlns="http://www.w3.org/2000/svg" xmlns:xlink="http://www.w3.org/1999/xlink" x="0px" y="0px"
	 viewBox="0 0 200 200" style="enable-background:new 0 0 200 200;" xml:space="preserve">
<style type="text/css">
	.st0{fill:url(#SVGID_1_);}
</style>
<linearGradient id="SVGID_1_" gradientUnits="userSpaceOnUse" x1="16" y1="100" x2="184" y2="100">
	<stop  offset="0" style="stop-color:#7FAD3B"/>
	<stop  offset="0.8165" style="stop-color:#9CC437"/>
</linearGradient>
<path class="st0" d="M170,37h-12.6V23h-29.8v14H70.1V23H40.3v14H30c-7.7,0-14,6.3-14,14v112c0,7.7,6.3,14,14,14h140
	c7.7,0,14-6.3,14-14V51C184,43.3,177.7,37,170,37z M133.4,29.9h17.8v30.4h-17.8V29.9z M89.6,90.2c0.4,1.5,0.6,3.1,0.6,4.9
	c0,7.9-5.3,15.2-13.3,17.7c-10.2,3.3-21-2.3-24.2-12.3c-2.4-7.4,0.2-15.6,6.3-20.4c2.9-2.3,6.2-3.7,9.9-4.1
	C78.6,75.1,87.3,81.2,89.6,90.2z M46.5,29.9h17.8v30.4H46.5V29.9z M103.1,141.3c-0.1,1.8-1.1,3-2.5,3.9c-1.5,0.9-3.2,1.3-4.9,1.6
	c-4.1,0.7-8.2,0.8-12.3,0.8c-3.9,0-7.9,0-11.8,0c0,0,0,0,0,0c-4.2,0-8.4,0-12.6,0c-2.7,0-5.3-0.1-8-0.3c-2.4-0.2-4.8-0.5-7.1-1.5
	c-1.3-0.5-2.4-1.3-3-2.5c-0.4-0.7-0.5-1.5-0.6-2.4c-0.2-4.5,0.7-8.8,2.9-12.8c2.9-5.2,7.1-8.8,12.6-10.9c2.8-1.1,5.8-1.6,8.9-1.6
	c4.7,0,9.3,0,14,0c6.2,0,11.7,2,16.3,6.1c4.1,3.7,6.7,8.3,7.7,13.7C103.2,137.4,103.2,139.4,103.1,141.3z M157.4,145.1h-34v-10.5h34
	V145.1z M157.4,128.1h-34v-10.5h34V128.1z M157.4,111.6h-34v-10.5h34V111.6z M157.4,94.8h-34V84.4h34V94.8z"/>
</svg>
