<?xml version="1.0" encoding="utf-8"?>
<!-- Generator: Adobe Illustrator 27.0.0, SVG Export Plug-In . SVG Version: 6.00 Build 0)  -->
<svg version="1.1" id="图层_1" xmlns="http://www.w3.org/2000/svg" xmlns:xlink="http://www.w3.org/1999/xlink" x="0px" y="0px"
	 viewBox="0 0 200 200" style="enable-background:new 0 0 200 200;" xml:space="preserve">
<style type="text/css">
	.st0{fill:url(#SVGID_1_);}
	.st1{fill:url(#SVGID_00000164481515084567853250000006337621581487834272_);}
</style>
<g>
	<linearGradient id="SVGID_1_" gradientUnits="userSpaceOnUse" x1="15.8" y1="99.95" x2="140.8986" y2="99.95">
		<stop  offset="0.1467" style="stop-color:#FEAA00"/>
		<stop  offset="0.7596" style="stop-color:#F89B00"/>
	</linearGradient>
	<path class="st0" d="M115.3,157.3c-2-2.9-4.1-6.3-5.5-10.8c-0.7-2.1-1-4-1.3-5.8c-1.1-6.5,0.3-12.7,1.3-15.7
		c3.4-10.8,10.9-18.7,21.6-23c7.8-3.1,17.9-3.2,25.7-0.2c3.5,1.3,6.6,3,9.4,5.1V22.3c-0.1-5.4-4.5-9.8-9.9-9.8h-131
		c-5.4,0-9.8,4.4-9.8,9.8v155.3c0,5.4,4.4,9.8,9.8,9.8H91c0-12,0.4-13.5,0.7-15v-0.1c1.2-5,4.5-8.4,6.4-10c3.7-3.2,8.1-5,12.4-5
		H115.3z M40.8,33.2h95.3c4,0,7.3,3.2,7.3,7.2s-3.2,7.2-7.2,7.2H40.8c-4,0-7.2-3.2-7.2-7.2S36.8,33.2,40.8,33.2z M72.5,119.5H40.8
		c-4,0-7.2-3.2-7.2-7.2s3.2-7.2,7.2-7.2h31.6c4.1,0,7.3,3.2,7.3,7.2S76.5,119.5,72.5,119.5z M40.9,83.6c-4,0-7.2-3.2-7.2-7.2
		s3.2-7.2,7.2-7.2h66c3.9-0.1,7.2,3.2,7.2,7.2s-3.2,7.2-7.2,7.2H40.9z"/>
	
		<linearGradient id="SVGID_00000134931481765701456240000006131943774407791035_" gradientUnits="userSpaceOnUse" x1="105.5" y1="150.9103" x2="184" y2="150.9103">
		<stop  offset="0" style="stop-color:#FEAA00"/>
		<stop  offset="1" style="stop-color:#F89B00"/>
	</linearGradient>
	<path style="fill:url(#SVGID_00000134931481765701456240000006131943774407791035_);" d="M178.8,171.8h-15.7
		c-0.4-0.4-1.4-1.9-1.8-2.3c-0.7-0.9-1.6-1.6-2.2-2.5c-0.8-1.1-1.5-2.2-2-3.5c-1.1-2.8-0.2-5.8,0.8-8c2.1-4.6,5.4-7.8,7.3-12.7
		c0.5-1.2,0.7-2.6,1-3.9c0.3-1.5,0.4-3.1,0.2-4.6c-0.2-1.1-0.2-2.1-0.4-3.1c-0.9-3.8-2.7-7.3-5.4-10.2c-2.3-2.5-5.2-4.4-8.7-5.7
		c-4.5-1.7-10.9-1.5-15.2,0.2c-6.4,2.5-11,7.1-13.1,13.9c-0.7,2.4-1.4,5.9-0.8,9c0.2,1.4,0.5,2.7,0.9,3.9c1.7,5.5,5.6,9.1,8.4,13.6
		c1.4,2.2,2.5,5.2,1.1,8.3c-0.9,2.1-2.5,3.9-4.2,5.2c-0.6,0.5-1.9,2-2.5,2.5h-15.9c-1.8,0-4.4,2.4-4.8,4.1
		c-0.3,1.2-0.3,11.7-0.3,11.7H184v-11.5C184,173.1,181.9,171.8,178.8,171.8z"/>
</g>
</svg>
