<?xml version="1.0" encoding="utf-8"?>
<!-- Generator: Adobe Illustrator 27.0.0, SVG Export Plug-In . SVG Version: 6.00 Build 0)  -->
<svg version="1.1" id="图层_1" xmlns="http://www.w3.org/2000/svg" xmlns:xlink="http://www.w3.org/1999/xlink" x="0px" y="0px"
	 viewBox="0 0 200.2 200" style="enable-background:new 0 0 200.2 200;" xml:space="preserve">
<style type="text/css">
	.st0{fill:url(#SVGID_1_);}
	.st1{fill:url(#SVGID_00000024723747865272137320000011768981968257125045_);}
</style>
<linearGradient id="SVGID_1_" gradientUnits="userSpaceOnUse" x1="122.71" y1="144.0537" x2="193.19" y2="144.0537">
	<stop  offset="0" style="stop-color:#FE7063"/>
	<stop  offset="1" style="stop-color:#F85A54"/>
</linearGradient>
<path class="st0" d="M193.2,116.3c-0.2-1.8-1.7-3.2-3.5-3.3c-9.9-0.3-24.4-7.5-29.7-10.3c-1.3-0.7-2.8-0.7-4.1,0l-1.9,1
	c-6.3,3.2-18.9,9.1-27.8,9.4c-1.8,0.1-3.3,1.5-3.5,3.3l0,0.3v36.1l0,0.6c0.6,13.5,19.1,27.6,32.2,32.1c0.9,0.3,1.8,0.5,2.7,0.5h0.6
	l0.6,0c0.7-0.1,1.5-0.2,2.2-0.5c13.1-4.5,31.6-18.6,32.2-32.1l0-0.6v-36.1L193.2,116.3z M182.2,133L158,157.4
	c-0.9,1-2.2,1.5-3.6,1.5c-1.3,0-2.6-0.5-3.6-1.5L137.4,144c-2-2-2-5.2,0-7.2c0,0,0.1-0.1,0.1-0.1c2-1.9,5.2-1.9,7.1,0.1l9.7,9.8
	l20.6-20.8c0,0,0.1-0.1,0.1-0.1c2-1.9,5.2-1.9,7.1,0.1C184.2,127.7,184.2,131,182.2,133z"/>
<linearGradient id="SVGID_00000036239763071677330020000015513625923131076789_" gradientUnits="userSpaceOnUse" x1="8.19" y1="91.2" x2="162.36" y2="91.2">
	<stop  offset="0.2682" style="stop-color:#FE7063"/>
	<stop  offset="1" style="stop-color:#F85A54"/>
</linearGradient>
<path style="fill:url(#SVGID_00000036239763071677330020000015513625923131076789_);" d="M85.3,14.1c-42.6,0-77.1,34.5-77.1,77.1
	s34.5,77.1,77.1,77.1c9.7,0,19.4-1.8,28.4-5.4c-1.1-2.8-1.7-5.6-1.9-8.4l-0.1-0.9l0-0.9v-36.1l0-0.5c0.3-7.4,6.2-13.6,13.6-14.1
	l0.5,0l0.6,0c5.7-0.4,15.3-4.2,24.4-9c3.6-1.9,7.7-2.3,11.6-1.1v-0.6C162.4,48.6,127.8,14.1,85.3,14.1z M111.3,108.2
	c-0.7,0.3-1.6,0.5-2.7,0.5H89.8v18.7c0,2.3-1.1,4-3.2,5c-0.8,0.3-1.6,0.5-2.3,0.5c-1.2,0-2.4-0.4-3.5-1.3c-1.3-1.1-1.9-2.5-1.9-4.5
	v-18.4H59.6c-2.3,0-4.4-1.4-5.2-3.6c-0.8-2.1-0.1-4.5,1.6-5.9c1-0.9,2.2-1.3,3.8-1.3h18.2c0.2,0,0.4,0.1,0.6,0.1v-8.5H59.9
	c-1.8,0-3.4-0.7-4.5-1.8c-1-1.1-1.5-2.6-1.3-4.3c0.3-2.8,2.7-4.8,5.8-4.8h16L56,59c-2-2-2.4-4.6-1.1-6.8c0.8-1.3,2.2-2.3,3.7-2.6
	l0,0c1.5-0.3,3.1,0.1,4.3,1c0.4,0.3,0.8,0.7,1.1,1L83.8,71c0.2,0.2,0.3,0.3,0.4,0.6c0.1-0.2,0.3-0.4,0.5-0.6
	c6.6-6.5,13.3-13,19.9-19.6c1.6-1.6,3.5-2.2,5.6-1.7c1.9,0.5,3.4,1.8,3.9,3.7c0.6,1.9,0,4-1.4,5.4c-2,2-4,4-6.1,6l-14,13.7h15.9
	c2.9,0,5.2,1.7,5.8,4.4c0.3,1.5,0,3-0.9,4.2c-0.8,1.2-2.1,1.9-3.5,2.1c-0.6,0.1-1.2,0.1-1.7,0.1H89.8v8.6H109c2.6,0,4.7,1.7,5.3,4.3
	C114.9,104.7,113.6,107.2,111.3,108.2z"/>
</svg>
