<?xml version="1.0" encoding="utf-8"?>
<!-- Generator: Adobe Illustrator 28.4.1, SVG Export Plug-In . SVG Version: 6.00 Build 0)  -->
<svg version="1.1" id="图层_1" xmlns="http://www.w3.org/2000/svg" xmlns:xlink="http://www.w3.org/1999/xlink" x="0px" y="0px"
	 viewBox="0 0 200 200" style="enable-background:new 0 0 200 200;" xml:space="preserve">
<style type="text/css">
	.st0{fill:url(#SVGID_1_);}
	.st1{fill:#FBD575;}
</style>
<linearGradient id="SVGID_1_" gradientUnits="userSpaceOnUse" x1="26.6435" y1="100.0002" x2="173.357" y2="100.0002">
	<stop  offset="0" style="stop-color:#8CDCA6"/>
	<stop  offset="1" style="stop-color:#66B88D"/>
</linearGradient>
<path class="st0" d="M74.7,64.9h54.6c3.7,0,7.2-1.6,9.6-4.4c5.6-6.7,11-14.9,12.2-22.3c2.4-14.8-3.9-22.2-22.2-22.2
	s-12.1,12-19.3,13c-5.3,0.7-5.1-6.3-13.5-13c-6-4.8-12.7,8.8-20.6,8.9c-9.2,0.1-22.2-2.4-22.2,13.3c0,6.4,5.6,15,11.7,22.1
	C67.5,63.3,71,64.9,74.7,64.9z M142.9,79c-2.9-3.3-7.1-5.2-11.5-5.2H73c-4.2,0-8.3,1.7-11.2,4.7c-18.3,19.2-35.2,46.6-35.2,66.6
	c0,17.6,17.7,39.8,39.5,39.8h67.7c21.8,0,39.5-22,39.5-39.8C173.4,124.8,159.8,98.2,142.9,79z M125.1,103.2l-11.7,21.3
	c-1,1.9,0.3,4.2,2.4,4.2h3.3c1.5,0,2.8,1.3,2.8,2.8l0,0c0,1.5-1.3,2.8-2.8,2.8h-8.4c-1.6,0-2.9,1.3-2.9,2.9v1.4
	c0,1.5,1.3,2.8,2.8,2.8h8.5c1.5,0,2.8,1.3,2.8,2.8c0,1.6-1.3,2.8-2.8,2.8h-8.5c-1.5,0-2.8,1.3-2.8,2.8v7.1c0,1.5-1.3,2.8-2.8,2.8
	h-5.1c-1.5,0-2.8-1.3-2.8-2.8v-7.1c0-1.5-1.3-2.8-2.8-2.8h-8.4c-1.5,0-2.8-1.3-2.8-2.8c0-1.6,1.3-2.8,2.8-2.8h8.4
	c1.6,0,2.8-1.3,2.8-2.8l0-1.4c0-1.6-1.3-3-2.9-3h-8.3c-1.5,0-2.8-1.3-2.8-2.8l0,0c0-1.5,1.3-2.8,2.8-2.8h3.2c2.1,0,3.5-2.3,2.4-4.2
	l-11.7-21.3c-1-1.9,0.3-4.2,2.4-4.2h5.6c1.1,0,2,0.6,2.5,1.5l9.5,19c1,2.1,4,2.1,5,0l9.5-19c0.5-0.9,1.4-1.5,2.5-1.5h5.6
	C124.7,99.1,126.1,101.4,125.1,103.2z"/>
<path class="st1" d="M136,76H69c-3.4,0-6.1-2.7-6.1-6.1v0c0-3.4,2.7-6.1,6.1-6.1h67c3.4,0,6.1,2.7,6.1,6.1v0
	C142.1,73.3,139.3,76,136,76z"/>
</svg>
