<?xml version="1.0" encoding="utf-8"?>
<!-- Generator: Adobe Illustrator 28.4.1, SVG Export Plug-In . SVG Version: 6.00 Build 0)  -->
<svg version="1.1" id="图层_1" xmlns="http://www.w3.org/2000/svg" xmlns:xlink="http://www.w3.org/1999/xlink" x="0px" y="0px"
	 viewBox="0 0 200 200" style="enable-background:new 0 0 200 200;" xml:space="preserve">
<style type="text/css">
	.st0{fill:#D08930;}
	.st1{fill:#F3C042;}
	.st2{fill:#F7D268;}
</style>
<circle class="st0" cx="98.9" cy="100.1" r="67.2"/>
<path class="st1" d="M99.9,6.3c-51.8,0-93.8,42-93.8,93.8s42,93.8,93.8,93.8s93.8-42,93.8-93.8S151.7,6.3,99.9,6.3z M157.9,158.1
	c-7.5,7.5-16.3,13.5-26.1,17.6c-10.1,4.3-20.9,6.5-31.9,6.5s-21.8-2.2-32-6.4c-9.8-4.1-18.5-10.1-26.1-17.6
	c-7.5-7.5-13.5-16.3-17.6-26.1c-4.3-10.1-6.5-20.9-6.5-31.9s2.2-21.8,6.4-32c4.1-9.8,10.1-18.5,17.6-26.1s16.3-13.5,26.1-17.6
	c10.1-4.3,20.9-6.4,32-6.4s21.8,2.2,32,6.4c9.8,4.1,18.5,10.1,26.1,17.6s13.5,16.3,17.6,26.1c4.3,10.1,6.4,20.9,6.4,32
	s-2.2,21.8-6.4,32C171.4,141.8,165.5,150.6,157.9,158.1z"/>
<path class="st2" d="M100.1,26.6c-40.5,0-73.3,32.8-73.3,73.3s32.8,73.3,73.3,73.3s73.3-32.8,73.3-73.3S140.5,26.6,100.1,26.6z
	 M135.7,67.7L116.4,87c-0.5,0.5-0.1,1.2,0.5,1.2h14.3c0.4,0,0.7,0.3,0.7,0.7v10.3c0,0.4-0.3,0.7-0.7,0.7H107c-0.8,0-1.5,0.7-1.5,1.5
	v9.5c0,0.4,0.3,0.7,0.7,0.7h24.9c0.4,0,0.7,0.3,0.7,0.7v10.3c0,0.4-0.3,0.7-0.7,0.7h-24.9c-0.4,0-0.7,0.3-0.7,0.7v16.1
	c0,0.4-0.3,0.7-0.7,0.7H94.5c-0.4,0-0.7-0.3-0.7-0.7v-16.1c0-0.4-0.3-0.7-0.7-0.7H68.1c-0.4,0-0.7-0.3-0.7-0.7v-10.3
	c0-0.4,0.3-0.7,0.7-0.7H93c0.4,0,0.7-0.3,0.7-0.7v-9.5c0-0.8-0.7-1.5-1.5-1.5H68.1c-0.4,0-0.7-0.3-0.7-0.7V89c0-0.4,0.3-0.7,0.7-0.7
	h12.8c0.7,0,1-0.8,0.5-1.2L62.1,67.7c-0.3-0.3-0.3-0.8,0-1l7.3-7.3c0.3-0.3,0.8-0.3,1,0l26.5,26.5c1.1,1.1,3,1.1,4.1,0l26.5-26.5
	c0.3-0.3,0.8-0.3,1,0l7.3,7.3C136,66.9,136,67.4,135.7,67.7z"/>
</svg>
