<?xml version="1.0" standalone="no"?><!DOCTYPE svg PUBLIC "-//W3C//DTD SVG 1.1//EN" "http://www.w3.org/Graphics/SVG/1.1/DTD/svg11.dtd"><svg t="1736682597808" class="icon" viewBox="0 0 1024 1024" version="1.1" xmlns="http://www.w3.org/2000/svg" p-id="4720" xmlns:xlink="http://www.w3.org/1999/xlink" width="200" height="200"><path d="M546.6 824.3l0.3-14.8-12-8.6 14.1-4.3 4.6-14 8.4 12.1 14.8-0.1-9 11.8 4.7 14-14-4.8-11.9 8.7zM434.6 817.6l-2.8-14.5-13.6-5.9 12.9-7.2 1.4-14.7 10.8 10.1 14.5-3.2-6.2 13.4 7.5 12.7-14.7-1.8-9.8 11.1zM657.7 790.7l-5-13.9-14.3-3.6L650 764l-0.9-14.7 12.3 8.2 13.7-5.4-4 14.2 9.4 11.4-14.8 0.5-7.9 12.5zM757.5 710.2l-10.3-10.6-14.6 2.4 7-13-6.8-13.2 14.6 2.6 10.4-10.5 2 14.6 13.2 6.7-13.3 6.4-2.2 14.6zM786.7 609.2l1.8-14.6-11.1-9.8 14.5-2.9 5.9-13.5 7.2 12.9 14.7 1.4-10.1 10.8 3.3 14.4-13.5-6.2-12.7 7.5zM218.5 456.5l1.8-14.7-11.1-9.8 14.5-2.8 5.9-13.6 7.2 12.9 14.7 1.5-10.1 10.8 3.3 14.4-13.5-6.2-12.7 7.5zM283.4 361.8l-10.3-10.6-14.6 2.3 7-13-6.8-13.1 14.6 2.6 10.4-10.5 2 14.6 13.2 6.7-13.3 6.4zM364 280.9l-5.1-13.8-14.3-3.7 11.6-9.1-0.9-14.8 12.3 8.2 13.7-5.4-4 14.2 9.4 11.4-14.8 0.6-7.9 12.4zM587.4 249.4l-2.9-14.5L571 229l12.9-7.2 1.4-14.7 10.8 10.1 14.5-3.2-6.3 13.4 7.5 12.7-14.7-1.8-9.7 11.1zM457.8 242.7l0.3-14.8-12-8.6 14.1-4.3 4.5-14.1 8.5 12.2 14.8-0.1-9 11.8 4.7 14-14-4.8-11.9 8.7z" fill="#F95C55" p-id="4721"></path><path d="M512.3 864.8c-70.5 0-139.4-21.1-197.7-60.6l17.2-9.9c156 99.7 363.3 54 462.9-102 37.1-58 55.4-126.1 52.4-194.9l17.1-9.9c13.6 194.3-133 362.9-327.3 376.4-8.2 0.6-16.4 0.9-24.6 0.9zM160.2 536.4c-13.6-194.4 133-362.9 327.3-376.5 78.7-5.5 157 15.6 222.4 59.8l-17.3 9.9c-155.8-99.7-363-54.2-462.7 101.7-37.2 58.1-55.5 126.3-52.5 195.3l-17.2 9.8z" fill="#F95C55" p-id="4722"></path><path d="M512.2 755.3c-29.3 0-58.3-5.3-85.7-15.6l20.5-11.9c119 36.2 244.8-31 281-150 1.4-4.6 2.7-9.3 3.8-14.1l20.5-11.8c-19.6 117.4-121.1 203.4-240.1 203.4zM272.1 471.8c22.1-132.6 147.5-222.2 280.2-200.1 15.6 2.6 30.9 6.7 45.7 12.3l-20.5 11.9c-119-36.2-244.8 31-281 150-1.4 4.6-2.7 9.3-3.8 14.1l-20.6 11.8zM798.9 173l-724 418c-14.3 8.3-19.3 26.6-11 41l120 207.8c8.3 14.3 26.6 19.3 41 11l724-418c14.3-8.3 19.3-26.6 11-41L839.9 184c-8.3-14.4-26.6-19.3-41-11z m137.8 218.7c6 10.4 2.9 23.3-6.9 29L224 828.2c-9.8 5.7-22.6 1.8-28.6-8.5L87.1 632c-6-10.4-2.9-23.3 6.9-29l705.8-407.5c9.8-5.7 22.6-1.8 28.6 8.5l108.3 187.7z" fill="#F95C55" p-id="4723"></path><path d="M308.5 545.4c4.1 31.3 1.2 64.4-6.8 89.4-3.8-0.9-11.5-1.9-15.5-2.1 9.5-23.8 12.3-55.1 8-83.6l14.3-3.7z m86 49.9c23.1 8.7 51.6 21.3 67.3 31l-7.6 12.7c-5.4-3.5-12.6-7.5-20.4-11.5-78.6 52.9-86.7 58.2-91.3 63.7-2.1-2.1-7.9-7.3-11.5-9.5 3.5-3.3 5-10.4 6.7-21.1 2-10.5 5.3-48.4 2.9-81.5l15.7-1.6c0.8 30.9-1.1 62.8-6 89.7l70-46.2c-11.3-5.1-23.2-10.3-33.7-14.4l7.9-11.3z m-48.2-77.7c22.5 15.3 56.5 28.5 80.1 32.1-1.6 4-3.5 10.9-4 15.4-24.6-5.5-59.4-20.1-84.9-36.6l8.8-10.9zM490.9 534.5c3.3 23.4 1.9 49-3.7 68-3.3-0.6-10.6-1.1-14.5-1 6.3-18.2 7.9-41.8 4.6-63.3l13.6-3.7z m80.3-85.9l6.6 11.4-61.9 35.7 38.5 66.7c4.2 7.3 4.4 12 0.1 17-4.4 5-13.5 10.5-27 18.3-2.6-3.1-7.4-7.1-11.1-9.6 10.8-5.8 20.9-11.7 23.6-13.4 3-1.7 3.4-3 2-5.5l-38.3-66.4-62.2 35.9-6.6-11.4 136.3-78.7z m-28.8-18.3l-108.8 62.8-6.6-11.4L535.8 419l6.6 11.3z m14.9 61.9c19.7 7.9 43.3 20.7 55.4 31.2l-8.5 11.6c-11.7-10.3-34.9-23.7-55-32.3l8.1-10.5zM708.6 340.6l42.1 73-11.8 6.8-5.1-8.9-44.8 25.8 29.2 50.5-12 6.9-29.2-50.4-44.6 25.7 5.6 9.7-11.4 6.6-42.6-73.7 56-32.3-16-27.7 12-6.9 16 27.7 56.6-32.8z m-38.2 92.3l-23.8-41.3-44.6 25.7 23.8 41.3 44.6-25.7z m56.8-32.8l-23.8-41.3-44.7 25.8 23.8 41.3 44.7-25.8z" fill="#F95C55" p-id="4724"></path></svg>